<svg id="my-svg" width="100%" xmlns="http://www.w3.org/2000/svg" xmlns:xlink="http://www.w3.org/1999/xlink" class="flowchart" style="max-width: 1932.2px; background-color: #0a1628;" viewBox="-43.83203125 -52 1932.1953125 1220.859375" role="graphics-document document" aria-roledescription="flowchart-v2"><defs><pattern id="bp-grid" x="-43.83203125" y="-52" width="40" height="40" patternUnits="userSpaceOnUse"><path d="M 10 0 L 10 40 M 20 0 L 20 40 M 30 0 L 30 40 M 0 10 L 40 10 M 0 20 L 40 20 M 0 30 L 40 30" fill="none" stroke="#16304f" stroke-width="0.35" opacity="0.35"/><path d="M 40 0 L 0 0 L 0 40" fill="none" stroke="#1e3a5f" stroke-width="0.75" opacity="0.55"/></pattern></defs><rect x="-43.83203125" y="-52" width="1932.1953125" height="1220.859375" fill="#0a1628"/><rect x="-43.83203125" y="-52" width="1932.1953125" height="1220.859375" fill="url(#bp-grid)"/><style>#my-svg{font-family:-apple-system,BlinkMacSystemFont,Segoe UI,Helvetica,Arial,sans-serif;font-size:16px;fill:#ccc;}@keyframes edge-animation-frame{from{stroke-dashoffset:0;}}@keyframes dash{to{stroke-dashoffset:0;}}#my-svg .edge-animation-slow{stroke-dasharray:9,5!important;stroke-dashoffset:900;animation:dash 50s linear infinite;stroke-linecap:round;}#my-svg .edge-animation-fast{stroke-dasharray:9,5!important;stroke-dashoffset:900;animation:dash 20s linear infinite;stroke-linecap:round;}#my-svg .error-icon{fill:#a44141;}#my-svg .error-text{fill:#ddd;stroke:#ddd;}#my-svg .edge-thickness-normal{stroke-width:1px;}#my-svg .edge-thickness-thick{stroke-width:3.5px;}#my-svg .edge-pattern-solid{stroke-dasharray:0;}#my-svg .edge-thickness-invisible{stroke-width:0;fill:none;}#my-svg .edge-pattern-dashed{stroke-dasharray:3;}#my-svg .edge-pattern-dotted{stroke-dasharray:2;}#my-svg .marker{fill:#8b949e;stroke:#8b949e;}#my-svg .marker.cross{stroke:#8b949e;}#my-svg svg{font-family:-apple-system,BlinkMacSystemFont,Segoe UI,Helvetica,Arial,sans-serif;font-size:16px;}#my-svg p{margin:0;}#my-svg .label{font-family:-apple-system,BlinkMacSystemFont,Segoe UI,Helvetica,Arial,sans-serif;color:#ccc;}#my-svg .cluster-label text{fill:#F9FFFE;}#my-svg .cluster-label span{color:#F9FFFE;}#my-svg .cluster-label span p{background-color:transparent;}#my-svg .label text,#my-svg span{fill:#ccc;color:#ccc;}#my-svg .node rect,#my-svg .node circle,#my-svg .node ellipse,#my-svg .node polygon,#my-svg .node path{fill:#1f2020;stroke:#ccc;stroke-width:1px;}#my-svg .rough-node .label text,#my-svg .node .label text,#my-svg .image-shape .label,#my-svg .icon-shape .label{text-anchor:middle;}#my-svg .node .katex path{fill:#000;stroke:#000;stroke-width:1px;}#my-svg .rough-node .label,#my-svg .node .label,#my-svg .image-shape .label,#my-svg .icon-shape .label{text-align:center;}#my-svg .node.clickable{cursor:pointer;}#my-svg .root .anchor path{fill:#8b949e!important;stroke-width:0;stroke:#8b949e;}#my-svg .arrowheadPath{fill:lightgrey;}#my-svg .edgePath .path{stroke:#8b949e;stroke-width:1px;}#my-svg .flowchart-link{stroke:#8b949e;fill:none;}#my-svg .edgeLabel{background-color:hsl(0, 0%, 34.4117647059%);text-align:center;}#my-svg .edgeLabel p{background-color:hsl(0, 0%, 34.4117647059%);}#my-svg .edgeLabel rect{opacity:0.5;background-color:hsl(0, 0%, 34.4117647059%);fill:hsl(0, 0%, 34.4117647059%);}#my-svg .labelBkg{background-color:rgba(87.75, 87.75, 87.75, 0.5);}#my-svg .cluster rect{fill:hsl(180, 1.5873015873%, 28.3529411765%);stroke:rgba(255, 255, 255, 0.25);stroke-width:1px;}#my-svg .cluster text{fill:#F9FFFE;}#my-svg .cluster span{color:#F9FFFE;}#my-svg div.mermaidTooltip{position:absolute;text-align:center;max-width:200px;padding:2px;font-family:-apple-system,BlinkMacSystemFont,Segoe UI,Helvetica,Arial,sans-serif;font-size:12px;background:#0d1117;border:1px solid rgba(255, 255, 255, 0.25);border-radius:2px;pointer-events:none;z-index:100;}#my-svg .flowchartTitleText{text-anchor:middle;font-size:18px;fill:#ccc;}#my-svg rect.text{fill:none;stroke-width:0;}#my-svg .icon-shape,#my-svg .image-shape{background-color:hsl(0, 0%, 34.4117647059%);text-align:center;}#my-svg .icon-shape p,#my-svg .image-shape p{background-color:hsl(0, 0%, 34.4117647059%);padding:2px;}#my-svg .icon-shape .label rect,#my-svg .image-shape .label rect{opacity:0.5;background-color:hsl(0, 0%, 34.4117647059%);fill:hsl(0, 0%, 34.4117647059%);}#my-svg .label-icon{display:inline-block;height:1em;overflow:visible;vertical-align:-0.125em;}#my-svg .node .label-icon path{fill:currentColor;stroke:revert;stroke-width:revert;}#my-svg .node .neo-node{stroke:#ccc;}#my-svg [data-look="neo"].node rect,#my-svg [data-look="neo"].cluster rect,#my-svg [data-look="neo"].node polygon{stroke:url(#my-svg-gradient);filter:drop-shadow( 1px 2px 2px rgba(185,185,185,1));}#my-svg [data-look="neo"].node path{stroke:url(#my-svg-gradient);stroke-width:1px;}#my-svg [data-look="neo"].node .outer-path{filter:drop-shadow( 1px 2px 2px rgba(185,185,185,1));}#my-svg [data-look="neo"].node .neo-line path{stroke:#ccc;filter:none;}#my-svg [data-look="neo"].node circle{stroke:url(#my-svg-gradient);filter:drop-shadow( 1px 2px 2px rgba(185,185,185,1));}#my-svg [data-look="neo"].node circle .state-start{fill:#000000;}#my-svg [data-look="neo"].icon-shape .icon{fill:url(#my-svg-gradient);filter:drop-shadow( 1px 2px 2px rgba(185,185,185,1));}#my-svg [data-look="neo"].icon-shape .icon-neo path{stroke:url(#my-svg-gradient);filter:drop-shadow( 1px 2px 2px rgba(185,185,185,1));}#my-svg :root{--mermaid-font-family:"trebuchet ms",verdana,arial,sans-serif;}#my-svg .titleBlock&gt;*{fill:#06111f!important;stroke:#1e3a5f!important;stroke-width:1px!important;color:#e6edf3!important;rx:4!important;ry:4!important;}#my-svg .titleBlock span{fill:#06111f!important;stroke:#1e3a5f!important;stroke-width:1px!important;color:#e6edf3!important;rx:4!important;ry:4!important;}#my-svg .titleBlock tspan{fill:#e6edf3!important;}#my-svg .sourceNode&gt;*{fill:#0a1628!important;stroke:#1e3a5f!important;stroke-width:1.5px!important;color:#e6edf3!important;rx:8!important;ry:8!important;}#my-svg .sourceNode span{fill:#0a1628!important;stroke:#1e3a5f!important;stroke-width:1.5px!important;color:#e6edf3!important;rx:8!important;ry:8!important;}#my-svg .sourceNode tspan{fill:#e6edf3!important;}#my-svg .artifactLine&gt;*{fill:#0a1628!important;stroke:#1e3a5f!important;stroke-width:1px!important;color:#c9d1d9!important;rx:6!important;ry:6!important;}#my-svg .artifactLine span{fill:#0a1628!important;stroke:#1e3a5f!important;stroke-width:1px!important;color:#c9d1d9!important;rx:6!important;ry:6!important;}#my-svg .artifactLine tspan{fill:#c9d1d9!important;}#my-svg .deployNode&gt;*{fill:#0f1d33!important;stroke:#3fb950!important;stroke-width:2px!important;color:#3fb950!important;rx:14!important;ry:14!important;}#my-svg .deployNode span{fill:#0f1d33!important;stroke:#3fb950!important;stroke-width:2px!important;color:#3fb950!important;rx:14!important;ry:14!important;}#my-svg .deployNode tspan{fill:#3fb950!important;}</style><g><marker id="my-svg_flowchart-v2-pointEnd" class="marker flowchart-v2" viewBox="0 0 10 10" refX="5" refY="5" markerUnits="userSpaceOnUse" markerWidth="8" markerHeight="8" orient="auto"><path d="M 0 0 L 10 5 L 0 10 z" class="arrowMarkerPath" style="stroke-width: 1; stroke-dasharray: 1, 0;"/></marker><marker id="my-svg_flowchart-v2-pointStart" class="marker flowchart-v2" viewBox="0 0 10 10" refX="4.5" refY="5" markerUnits="userSpaceOnUse" markerWidth="8" markerHeight="8" orient="auto"><path d="M 0 5 L 10 10 L 10 0 z" class="arrowMarkerPath" style="stroke-width: 1; stroke-dasharray: 1, 0;"/></marker><marker id="my-svg_flowchart-v2-pointEnd-margin" class="marker flowchart-v2" viewBox="0 0 11.5 14" refX="11.5" refY="7" markerUnits="userSpaceOnUse" markerWidth="10.5" markerHeight="14" orient="auto"><path d="M 0 0 L 11.5 7 L 0 14 z" class="arrowMarkerPath" style="stroke-width: 0; stroke-dasharray: 1, 0;"/></marker><marker id="my-svg_flowchart-v2-pointStart-margin" class="marker flowchart-v2" viewBox="0 0 11.5 14" refX="1" refY="7" markerUnits="userSpaceOnUse" markerWidth="11.5" markerHeight="14" orient="auto"><polygon points="0,7 11.5,14 11.5,0" class="arrowMarkerPath" style="stroke-width: 0; stroke-dasharray: 1, 0;"/></marker><marker id="my-svg_flowchart-v2-circleEnd" class="marker flowchart-v2" viewBox="0 0 10 10" refX="11" refY="5" markerUnits="userSpaceOnUse" markerWidth="11" markerHeight="11" orient="auto"><circle cx="5" cy="5" r="5" class="arrowMarkerPath" style="stroke-width: 1; stroke-dasharray: 1, 0;"/></marker><marker id="my-svg_flowchart-v2-circleStart" class="marker flowchart-v2" viewBox="0 0 10 10" refX="-1" refY="5" markerUnits="userSpaceOnUse" markerWidth="11" markerHeight="11" orient="auto"><circle cx="5" cy="5" r="5" class="arrowMarkerPath" style="stroke-width: 1; stroke-dasharray: 1, 0;"/></marker><marker id="my-svg_flowchart-v2-circleEnd-margin" class="marker flowchart-v2" viewBox="0 0 10 10" refY="5" refX="12.25" markerUnits="userSpaceOnUse" markerWidth="14" markerHeight="14" orient="auto"><circle cx="5" cy="5" r="5" class="arrowMarkerPath" style="stroke-width: 0; stroke-dasharray: 1, 0;"/></marker><marker id="my-svg_flowchart-v2-circleStart-margin" class="marker flowchart-v2" viewBox="0 0 10 10" refX="-2" refY="5" markerUnits="userSpaceOnUse" markerWidth="14" markerHeight="14" orient="auto"><circle cx="5" cy="5" r="5" class="arrowMarkerPath" style="stroke-width: 0; stroke-dasharray: 1, 0;"/></marker><marker id="my-svg_flowchart-v2-crossEnd" class="marker cross flowchart-v2" viewBox="0 0 11 11" refX="12" refY="5.2" markerUnits="userSpaceOnUse" markerWidth="11" markerHeight="11" orient="auto"><path d="M 1,1 l 9,9 M 10,1 l -9,9" class="arrowMarkerPath" style="stroke-width: 2; stroke-dasharray: 1, 0;"/></marker><marker id="my-svg_flowchart-v2-crossStart" class="marker cross flowchart-v2" viewBox="0 0 11 11" refX="-1" refY="5.2" markerUnits="userSpaceOnUse" markerWidth="11" markerHeight="11" orient="auto"><path d="M 1,1 l 9,9 M 10,1 l -9,9" class="arrowMarkerPath" style="stroke-width: 2; stroke-dasharray: 1, 0;"/></marker><marker id="my-svg_flowchart-v2-crossEnd-margin" class="marker cross flowchart-v2" viewBox="0 0 15 15" refX="17.7" refY="7.5" markerUnits="userSpaceOnUse" markerWidth="12" markerHeight="12" orient="auto"><path d="M 1,1 L 14,14 M 1,14 L 14,1" class="arrowMarkerPath" style="stroke-width: 2.5;"/></marker><marker id="my-svg_flowchart-v2-crossStart-margin" class="marker cross flowchart-v2" viewBox="0 0 15 15" refX="-3.5" refY="7.5" markerUnits="userSpaceOnUse" markerWidth="12" markerHeight="12" orient="auto"><path d="M 1,1 L 14,14 M 1,14 L 14,1" class="arrowMarkerPath" style="stroke-width: 2.5; stroke-dasharray: 1, 0;"/></marker><g class="root"><g class="clusters"><g class="cluster" id="my-svg-report" data-look="neo"><rect style="fill:#0f1d33 !important;stroke:#d29922 !important;stroke-width:2px !important;rx:12 !important;ry:12 !important" x="466.23828125" y="789.109375" width="1009.28125" height="221.75"/><g class="cluster-label" transform="translate(500.87890625, 803.109375)"><foreignObject width="940" height="32"><div xmlns="http://www.w3.org/1999/xhtml" style="display: table-cell; white-space: nowrap; line-height: 1.5;"><span class="nodeLabel" style="color:#e6edf3 !important"><p></p><div style="text-align:center;min-width:940px;line-height:2"><span style="font-family:ui-monospace,monospace;color:&amp;8b949e;font-size:11px;letter-spacing:3px">ARTIFACT 05 · AUDIT</span>  ·  <b style="letter-spacing:2px">prompts / &lt;name&gt; /</b></div><p></p></span></div></foreignObject></g></g><g class="cluster" id="my-svg-learning" data-look="neo"><rect style="fill:#0f1d33 !important;stroke:#bc8cff !important;stroke-width:2px !important;rx:12 !important;ry:12 !important" x="-35.83203125" y="545.359375" width="948" height="221.75"/><g class="cluster-label" transform="translate(-31.83203125, 559.359375)"><foreignObject width="940" height="32"><div xmlns="http://www.w3.org/1999/xhtml" style="display: table-cell; white-space: nowrap; line-height: 1.5;"><span class="nodeLabel" style="color:#e6edf3 !important"><p></p><div style="text-align:center;min-width:940px;line-height:2"><span style="font-family:ui-monospace,monospace;color:&amp;8b949e;font-size:11px;letter-spacing:3px">ARTIFACT 04 · ACCUMULATION</span>  ·  <b style="letter-spacing:2px">prompts / &lt;name&gt; /</b></div><p></p></span></div></foreignObject></g></g><g class="cluster" id="my-svg-hardening" data-look="neo"><rect style="fill:#0f1d33 !important;stroke:#d75952 !important;stroke-width:2px !important;rx:12 !important;ry:12 !important" x="932.36328125" y="328.796875" width="948" height="194.5625"/><g class="cluster-label" transform="translate(936.36328125, 342.796875)"><foreignObject width="940" height="32"><div xmlns="http://www.w3.org/1999/xhtml" style="display: table-cell; white-space: nowrap; line-height: 1.5;"><span class="nodeLabel" style="color:#e6edf3 !important"><p></p><div style="text-align:center;min-width:940px;line-height:2"><span style="font-family:ui-monospace,monospace;color:&amp;8b949e;font-size:11px;letter-spacing:3px">ARTIFACT 03 · ADVERSARIAL</span>  ·  <b style="letter-spacing:2px">prompts / &lt;name&gt; /</b></div><p></p></span></div></foreignObject></g></g><g class="cluster" id="my-svg-validation" data-look="neo"><rect style="fill:#0f1d33 !important;stroke:#3fb950 !important;stroke-width:2px !important;rx:12 !important;ry:12 !important" x="682.11328125" y="545.359375" width="948" height="221.75"/><g class="cluster-label" transform="translate(686.11328125, 559.359375)"><foreignObject width="940" height="32"><div xmlns="http://www.w3.org/1999/xhtml" style="display: table-cell; white-space: nowrap; line-height: 1.5;"><span class="nodeLabel" style="color:#e6edf3 !important"><p></p><div style="text-align:center;min-width:940px;line-height:2"><span style="font-family:ui-monospace,monospace;color:&amp;8b949e;font-size:11px;letter-spacing:3px">ARTIFACT 02 · VERIFICATION</span>  ·  <b style="letter-spacing:2px">prompts / &lt;name&gt; /</b></div><p></p></span></div></foreignObject></g></g><g class="cluster" id="my-svg-genesis" data-look="neo"><rect style="fill:#0f1d33 !important;stroke:#58a6ff !important;stroke-width:2px !important;rx:12 !important;ry:12 !important" x="389.42578125" y="328.796875" width="948" height="194.5625"/><g class="cluster-label" transform="translate(393.42578125, 342.796875)"><foreignObject width="940" height="32"><div xmlns="http://www.w3.org/1999/xhtml" style="display: table-cell; white-space: nowrap; line-height: 1.5;"><span class="nodeLabel" style="color:#e6edf3 !important"><p></p><div style="text-align:center;min-width:940px;line-height:2"><span style="font-family:ui-monospace,monospace;color:&amp;8b949e;font-size:11px;letter-spacing:3px">ARTIFACT 01 · GENESIS</span>  ·  <b style="letter-spacing:2px">prompts / &lt;name&gt; /</b></div><p></p></span></div></foreignObject></g></g><g class="cluster" id="my-svg-sources" data-look="neo"><rect style="" x="412.3359375" y="148.796875" width="1140.08984375" height="158"/><g class="cluster-label" transform="translate(512.380859375, 162.796875)"><foreignObject width="940" height="16.5"><div xmlns="http://www.w3.org/1999/xhtml" style="display: table-cell; white-space: nowrap; line-height: 1.5;"><span class="nodeLabel"><p></p><div style="text-align:center;min-width:940px;font-family:ui-monospace,monospace;color:&amp;8b949e;font-size:11px;letter-spacing:3px">SKILL INVOCATIONS  ·  COMMAND SOURCES</div><p></p></span></div></foreignObject></g></g></g><g class="edgePaths"><path d="M555.395,279.797L561.819,284.297C568.244,288.797,581.093,297.797,587.517,306.797C593.941,315.797,593.941,324.797,625.646,333.797C657.35,342.797,720.759,351.797,765.808,361.726C810.857,371.656,837.547,382.515,850.892,387.945L864.236,393.374" id="my-svg-L_Create_prompt_0" class="edge-thickness-normal edge-pattern-solid edge-thickness-normal edge-pattern-solid flowchart-link" style="stroke-dasharray: 0 0 333.1252746582031 4; stroke-dashoffset: 0;stroke:#8b949e;stroke-width:1.5px;;;stroke:#8b949e;stroke-width:1.5px" data-edge="true" data-et="edge" data-id="L_Create_prompt_0" data-points="W3sieCI6NTU1LjM5NTA4OTI4NTcxNDMsInkiOjI3OS43OTY4NzV9LHsieCI6NTkzLjk0MTQwNjI1LCJ5IjozMDYuNzk2ODc1fSx7IngiOjU5My45NDE0MDYyNSwieSI6MzMzLjc5Njg3NX0seyJ4Ijo3ODQuMTY3OTY4NzUsInkiOjM2MC43OTY4NzV9LHsieCI6ODY3Ljk0MTQwNjI1LCJ5IjozOTQuODgxNTM1MTEzMDE4N31d" data-look="neo" marker-end="url(#my-svg_flowchart-v2-pointEnd-margin__8b949e)"/><path d="M494.953,279.797L493.822,284.297C492.691,288.797,490.43,297.797,489.299,306.797C488.168,315.797,488.168,324.797,510.196,333.797C532.224,342.797,576.28,351.797,600.518,360.216C624.756,368.635,629.176,376.474,631.386,380.393L633.596,384.313" id="my-svg-L_Create_meta_0" class="edge-thickness-normal edge-pattern-solid edge-thickness-normal edge-pattern-solid flowchart-link" style="stroke-dasharray: 0 0 197.6614532470703 4; stroke-dashoffset: 0;stroke:#8b949e;stroke-width:1.5px;;;stroke:#8b949e;stroke-width:1.5px" data-edge="true" data-et="edge" data-id="L_Create_meta_0" data-points="W3sieCI6NDk0Ljk1MzEyNSwieSI6Mjc5Ljc5Njg3NX0seyJ4Ijo0ODguMTY3OTY4NzUsInkiOjMwNi43OTY4NzV9LHsieCI6NDg4LjE2Nzk2ODc1LCJ5IjozMzMuNzk2ODc1fSx7IngiOjYyMC4zMzU5Mzc1LCJ5IjozNjAuNzk2ODc1fSx7IngiOjYzNS41NjA0MTg0Njg4NTgyLCJ5IjozODcuNzk2ODc1fV0=" data-look="neo" marker-end="url(#my-svg_flowchart-v2-pointEnd-margin__8b949e)"/><path d="M854.457,267.14L876.038,273.75C897.618,280.359,940.78,293.578,962.361,304.687C983.941,315.797,983.941,324.797,983.941,333.797C983.941,342.797,983.941,351.797,983.941,360.13C983.941,368.464,983.941,376.13,983.941,379.964L983.941,383.797" id="my-svg-L_Converge_prompt_0" class="edge-thickness-normal edge-pattern-solid edge-thickness-normal edge-pattern-solid flowchart-link" style="stroke-dasharray: 0 0 199.22979736328125 4; stroke-dashoffset: 0;stroke:#8b949e;stroke-width:1.5px;;;stroke:#8b949e;stroke-width:1.5px" data-edge="true" data-et="edge" data-id="L_Converge_prompt_0" data-points="W3sieCI6ODU0LjQ1NzAzMTI1LCJ5IjoyNjcuMTQwMTMzNjQwMzM0Mn0seyJ4Ijo5ODMuOTQxNDA2MjUsInkiOjMwNi43OTY4NzV9LHsieCI6OTgzLjk0MTQwNjI1LCJ5IjozMzMuNzk2ODc1fSx7IngiOjk4My45NDE0MDYyNSwieSI6MzYwLjc5Njg3NX0seyJ4Ijo5ODMuOTQxNDA2MjUsInkiOjM4Ny43OTY4NzV9XQ==" data-look="neo" marker-end="url(#my-svg_flowchart-v2-pointEnd-margin__8b949e)"/><path d="M804.484,279.797L807.765,284.297C811.045,288.797,817.607,297.797,820.887,306.797C824.168,315.797,824.168,324.797,824.168,333.797C824.168,342.797,824.168,351.797,816.013,360.492C807.859,369.187,791.55,377.577,783.395,381.772L775.24,385.967" id="my-svg-L_Converge_meta_0" class="edge-thickness-normal edge-pattern-solid edge-thickness-normal edge-pattern-solid flowchart-link" style="stroke-dasharray: 0 0 132.08636474609375 4; stroke-dashoffset: 0;stroke:#8b949e;stroke-width:1.5px;;;stroke:#8b949e;stroke-width:1.5px" data-edge="true" data-et="edge" data-id="L_Converge_meta_0" data-points="W3sieCI6ODA0LjQ4MzgxNjk2NDI4NTcsInkiOjI3OS43OTY4NzV9LHsieCI6ODI0LjE2Nzk2ODc1LCJ5IjozMDYuNzk2ODc1fSx7IngiOjgyNC4xNjc5Njg3NSwieSI6MzMzLjc5Njg3NX0seyJ4Ijo4MjQuMTY3OTY4NzUsInkiOjM2MC43OTY4NzV9LHsieCI6NzcxLjY4MzUzOTY4NDI1NjEsInkiOjM4Ny43OTY4NzV9XQ==" data-look="neo" marker-end="url(#my-svg_flowchart-v2-pointEnd-margin__8b949e)"/><path d="M702.02,273.023L687.34,278.652C672.66,284.281,643.301,295.539,628.621,305.668C613.941,315.797,613.941,324.797,584.646,333.797C555.35,342.797,496.759,351.797,467.464,369.844C438.168,387.891,438.168,414.984,438.168,442.078C438.168,469.172,438.168,496.266,438.168,514.313C438.168,532.359,438.168,541.359,438.168,550.359C438.168,559.359,438.168,568.359,438.168,576.693C438.168,585.026,438.168,592.693,438.168,596.526L438.168,600.359" id="my-svg-L_Converge_learnings_0" class="edge-thickness-normal edge-pattern-solid edge-thickness-normal edge-pattern-solid flowchart-link" style="stroke-dasharray: 0 0 493.0384826660156 4; stroke-dashoffset: 0;stroke:#8b949e;stroke-width:1.5px;;;stroke:#8b949e;stroke-width:1.5px" data-edge="true" data-et="edge" data-id="L_Converge_learnings_0" data-points="W3sieCI6NzAyLjAxOTUzMTI1LCJ5IjoyNzMuMDIzMTIzMjE2ODMzMX0seyJ4Ijo2MTMuOTQxNDA2MjUsInkiOjMwNi43OTY4NzV9LHsieCI6NjEzLjk0MTQwNjI1LCJ5IjozMzMuNzk2ODc1fSx7IngiOjQzOC4xNjc5Njg3NSwieSI6MzYwLjc5Njg3NX0seyJ4Ijo0MzguMTY3OTY4NzUsInkiOjQ0Mi4wNzgxMjV9LHsieCI6NDM4LjE2Nzk2ODc1LCJ5Ijo1MjMuMzU5Mzc1fSx7IngiOjQzOC4xNjc5Njg3NSwieSI6NTUwLjM1OTM3NX0seyJ4Ijo0MzguMTY3OTY4NzUsInkiOjU3Ny4zNTkzNzV9LHsieCI6NDM4LjE2Nzk2ODc1LCJ5Ijo2MDQuMzU5Mzc1fV0=" data-look="neo" marker-end="url(#my-svg_flowchart-v2-pointEnd-margin__8b949e)"/><path d="M751.649,496.359L758.735,500.859C765.822,505.359,779.995,514.359,787.081,523.359C794.168,532.359,794.168,541.359,836.921,550.359C879.673,559.359,965.178,568.359,1019.592,579.303C1074.005,590.246,1097.327,603.132,1108.988,609.575L1120.648,616.019" id="my-svg-L_meta_tests_0" class="edge-thickness-normal edge-pattern-solid edge-thickness-normal edge-pattern-solid flowchart-link" style="stroke-dasharray: 0 0 392.55194091796875 4; stroke-dashoffset: 0;stroke:#8b949e;stroke-width:1.5px;;;stroke:#8b949e;stroke-width:1.5px" data-edge="true" data-et="edge" data-id="L_meta_tests_0" data-points="W3sieCI6NzUxLjY0ODkzNzYwODEzMTUsInkiOjQ5Ni4zNTkzNzV9LHsieCI6Nzk0LjE2Nzk2ODc1LCJ5Ijo1MjMuMzU5Mzc1fSx7IngiOjc5NC4xNjc5Njg3NSwieSI6NTUwLjM1OTM3NX0seyJ4IjoxMDUwLjY4MzU5Mzc1LCJ5Ijo1NzcuMzU5Mzc1fSx7IngiOjExMjQuMTQ5NDU2NTIxNzM5LCJ5Ijo2MTcuOTUzMTI1fV0=" data-look="neo" marker-end="url(#my-svg_flowchart-v2-pointEnd-margin__8b949e)"/><path d="M1076.488,279.797L1076.488,284.297C1076.488,288.797,1076.488,297.797,1076.488,306.797C1076.488,315.797,1076.488,324.797,1103.279,333.797C1130.069,342.797,1183.65,351.797,1210.44,369.844C1237.23,387.891,1237.23,414.984,1237.23,442.078C1237.23,469.172,1237.23,496.266,1237.23,514.313C1237.23,532.359,1237.23,541.359,1237.23,550.359C1237.23,559.359,1237.23,568.359,1236.275,578.966C1235.32,589.573,1233.409,601.787,1232.453,607.894L1231.498,614.001" id="my-svg-L_Test_tests_0" class="edge-thickness-normal edge-pattern-solid edge-thickness-normal edge-pattern-solid flowchart-link" style="stroke-dasharray: 0 0 431.3435363769531 4; stroke-dashoffset: 0;stroke:#8b949e;stroke-width:1.5px;;;stroke:#8b949e;stroke-width:1.5px" data-edge="true" data-et="edge" data-id="L_Test_tests_0" data-points="W3sieCI6MTA3Ni40ODgyODEyNSwieSI6Mjc5Ljc5Njg3NX0seyJ4IjoxMDc2LjQ4ODI4MTI1LCJ5IjozMDYuNzk2ODc1fSx7IngiOjEwNzYuNDg4MjgxMjUsInkiOjMzMy43OTY4NzV9LHsieCI6MTIzNy4yMzA0Njg3NSwieSI6MzYwLjc5Njg3NX0seyJ4IjoxMjM3LjIzMDQ2ODc1LCJ5Ijo0NDIuMDc4MTI1fSx7IngiOjEyMzcuMjMwNDY4NzUsInkiOjUyMy4zNTkzNzV9LHsieCI6MTIzNy4yMzA0Njg3NSwieSI6NTUwLjM1OTM3NX0seyJ4IjoxMjM3LjIzMDQ2ODc1LCJ5Ijo1NzcuMzU5Mzc1fSx7IngiOjEyMzAuODc5MzM4NTYyMjUzLCJ5Ijo2MTcuOTUzMTI1fV0=" data-look="neo" marker-end="url(#my-svg_flowchart-v2-pointEnd-margin__8b949e)"/><path d="M1246.754,279.797L1246.754,284.297C1246.754,288.797,1246.754,297.797,1246.754,306.797C1246.754,315.797,1246.754,324.797,1273.355,333.797C1299.957,342.797,1353.16,351.797,1379.762,360.13C1406.363,368.464,1406.363,376.13,1406.363,379.964L1406.363,383.797" id="my-svg-L_Harden_audit_0" class="edge-thickness-normal edge-pattern-solid edge-thickness-normal edge-pattern-solid flowchart-link" style="stroke-dasharray: 0 0 213.34765625 4; stroke-dashoffset: 0;stroke:#8b949e;stroke-width:1.5px;;;stroke:#8b949e;stroke-width:1.5px" data-edge="true" data-et="edge" data-id="L_Harden_audit_0" data-points="W3sieCI6MTI0Ni43NTM5MDYyNSwieSI6Mjc5Ljc5Njg3NX0seyJ4IjoxMjQ2Ljc1MzkwNjI1LCJ5IjozMDYuNzk2ODc1fSx7IngiOjEyNDYuNzUzOTA2MjUsInkiOjMzMy43OTY4NzV9LHsieCI6MTQwNi4zNjMyODEyNSwieSI6MzYwLjc5Njg3NX0seyJ4IjoxNDA2LjM2MzI4MTI1LCJ5IjozODcuNzk2ODc1fV0=" data-look="neo" marker-end="url(#my-svg_flowchart-v2-pointEnd-margin__8b949e)"/><path d="M1436.285,279.797L1436.285,284.297C1436.285,288.797,1436.285,297.797,1436.285,306.797C1436.285,315.797,1436.285,324.797,1379.352,333.797C1322.418,342.797,1208.551,351.797,1146.024,360.402C1083.496,369.008,1072.309,377.219,1066.716,381.325L1061.122,385.43" id="my-svg-L_Translate_prompt_0" class="edge-thickness-normal edge-pattern-solid edge-thickness-normal edge-pattern-solid flowchart-link" style="stroke-dasharray: 0 0 415.53802490234375 4; stroke-dashoffset: 0;stroke:#8b949e;stroke-width:1.5px;;;stroke:#8b949e;stroke-width:1.5px" data-edge="true" data-et="edge" data-id="L_Translate_prompt_0" data-points="W3sieCI6MTQzNi4yODUxNTYyNSwieSI6Mjc5Ljc5Njg3NX0seyJ4IjoxNDM2LjI4NTE1NjI1LCJ5IjozMDYuNzk2ODc1fSx7IngiOjE0MzYuMjg1MTU2MjUsInkiOjMzMy43OTY4NzV9LHsieCI6MTA5NC42ODM1OTM3NSwieSI6MzYwLjc5Njg3NX0seyJ4IjoxMDU3Ljg5NzI2MTU3MDA2OTMsInkiOjM4Ny43OTY4NzV9XQ==" data-look="neo" marker-end="url(#my-svg_flowchart-v2-pointEnd-margin__8b949e)"/><path d="M983.941,496.359L983.941,500.859C983.941,505.359,983.941,514.359,983.941,523.359C983.941,532.359,983.941,541.359,963.275,550.359C942.608,559.359,901.275,568.359,880.608,588.672C859.941,608.984,859.941,640.609,859.941,672.234C859.941,703.859,859.941,735.484,859.941,755.797C859.941,776.109,859.941,785.109,859.941,794.109C859.941,803.109,859.941,812.109,858.135,820.505C856.328,828.9,852.716,836.69,850.909,840.585L849.103,844.481" id="my-svg-L_prompt_pdf_0" class="edge-thickness-normal edge-pattern-solid edge-thickness-normal edge-pattern-solid flowchart-link" style="stroke-dasharray: 0 0 414.220703125 4; stroke-dashoffset: 0;stroke:#8b949e;stroke-width:1.5px;;;stroke:#8b949e;stroke-width:1.5px" data-edge="true" data-et="edge" data-id="L_prompt_pdf_0" data-points="W3sieCI6OTgzLjk0MTQwNjI1LCJ5Ijo0OTYuMzU5Mzc1fSx7IngiOjk4My45NDE0MDYyNSwieSI6NTIzLjM1OTM3NX0seyJ4Ijo5ODMuOTQxNDA2MjUsInkiOjU1MC4zNTkzNzV9LHsieCI6ODU5Ljk0MTQwNjI1LCJ5Ijo1NzcuMzU5Mzc1fSx7IngiOjg1OS45NDE0MDYyNSwieSI6NjcyLjIzNDM3NX0seyJ4Ijo4NTkuOTQxNDA2MjUsInkiOjc2Ny4xMDkzNzV9LHsieCI6ODU5Ljk0MTQwNjI1LCJ5Ijo3OTQuMTA5Mzc1fSx7IngiOjg1OS45NDE0MDYyNSwieSI6ODIxLjEwOTM3NX0seyJ4Ijo4NDcuNDE5NjY3MTE5NTY1MiwieSI6ODQ4LjEwOTM3NX1d" data-look="neo" marker-end="url(#my-svg_flowchart-v2-pointEnd-margin__8b949e)"/><path d="M639.455,496.359L637.241,500.859C635.026,505.359,630.597,514.359,628.383,523.359C626.168,532.359,626.168,541.359,626.168,550.359C626.168,559.359,626.168,568.359,626.168,588.672C626.168,608.984,626.168,640.609,626.168,672.234C626.168,703.859,626.168,735.484,626.168,755.797C626.168,776.109,626.168,785.109,626.168,794.109C626.168,803.109,626.168,812.109,637.867,822.458C649.567,832.807,672.965,844.505,684.664,850.354L696.364,856.203" id="my-svg-L_meta_pdf_0" class="edge-thickness-normal edge-pattern-solid edge-thickness-normal edge-pattern-solid flowchart-link" style="stroke-dasharray: 0 0 395.77587890625 4; stroke-dashoffset: 0;stroke:#8b949e;stroke-width:1.5px;;;stroke:#8b949e;stroke-width:1.5px" data-edge="true" data-et="edge" data-id="L_meta_pdf_0" data-points="W3sieCI6NjM5LjQ1NTE2NTk4MTgzMzksInkiOjQ5Ni4zNTkzNzV9LHsieCI6NjI2LjE2Nzk2ODc1LCJ5Ijo1MjMuMzU5Mzc1fSx7IngiOjYyNi4xNjc5Njg3NSwieSI6NTUwLjM1OTM3NX0seyJ4Ijo2MjYuMTY3OTY4NzUsInkiOjU3Ny4zNTkzNzV9LHsieCI6NjI2LjE2Nzk2ODc1LCJ5Ijo2NzIuMjM0Mzc1fSx7IngiOjYyNi4xNjc5Njg3NSwieSI6NzY3LjEwOTM3NX0seyJ4Ijo2MjYuMTY3OTY4NzUsInkiOjc5NC4xMDkzNzV9LHsieCI6NjI2LjE2Nzk2ODc1LCJ5Ijo4MjEuMTA5Mzc1fSx7IngiOjY5OS45NDE0MDYyNSwieSI6ODU3Ljk5MTUzODE0Njg0NDV9XQ==" data-look="neo" marker-end="url(#my-svg_flowchart-v2-pointEnd-margin__8b949e)"/><path d="M1222.387,726.516L1222.387,733.281C1222.387,740.047,1222.387,753.578,1222.387,764.844C1222.387,776.109,1222.387,785.109,1222.387,794.109C1222.387,803.109,1222.387,812.109,1174.628,827.757C1126.87,843.405,1031.353,865.702,983.595,876.85L935.837,887.998" id="my-svg-L_tests_pdf_0" class="edge-thickness-normal edge-pattern-solid edge-thickness-normal edge-pattern-solid flowchart-link" style="stroke-dasharray: 0 0 372.37261962890625 4; stroke-dashoffset: 0;stroke:#8b949e;stroke-width:1.5px;;;stroke:#8b949e;stroke-width:1.5px" data-edge="true" data-et="edge" data-id="L_tests_pdf_0" data-points="W3sieCI6MTIyMi4zODY3MTg3NSwieSI6NzI2LjUxNTYyNX0seyJ4IjoxMjIyLjM4NjcxODc1LCJ5Ijo3NjcuMTA5Mzc1fSx7IngiOjEyMjIuMzg2NzE4NzUsInkiOjc5NC4xMDkzNzV9LHsieCI6MTIyMi4zODY3MTg3NSwieSI6ODIxLjEwOTM3NX0seyJ4Ijo5MzEuOTQxNDA2MjUsInkiOjg4OC45MDY5MzE0NjMyMzg4fV0=" data-look="neo" marker-end="url(#my-svg_flowchart-v2-pointEnd-margin__8b949e)"/><path d="M1406.363,496.359L1406.363,500.859C1406.363,505.359,1406.363,514.359,1406.363,523.359C1406.363,532.359,1406.363,541.359,1406.363,550.359C1406.363,559.359,1406.363,568.359,1406.363,588.672C1406.363,608.984,1406.363,640.609,1406.363,672.234C1406.363,703.859,1406.363,735.484,1406.363,755.797C1406.363,776.109,1406.363,785.109,1406.363,794.109C1406.363,803.109,1406.363,812.109,1327.951,829.209C1249.539,846.309,1092.715,871.51,1014.303,884.11L935.891,896.71" id="my-svg-L_audit_pdf_0" class="edge-thickness-normal edge-pattern-solid edge-thickness-normal edge-pattern-solid flowchart-link" style="stroke-dasharray: 0 0 782.1388549804688 4; stroke-dashoffset: 0;stroke:#8b949e;stroke-width:1.5px;;;stroke:#8b949e;stroke-width:1.5px" data-edge="true" data-et="edge" data-id="L_audit_pdf_0" data-points="W3sieCI6MTQwNi4zNjMyODEyNSwieSI6NDk2LjM1OTM3NX0seyJ4IjoxNDA2LjM2MzI4MTI1LCJ5Ijo1MjMuMzU5Mzc1fSx7IngiOjE0MDYuMzYzMjgxMjUsInkiOjU1MC4zNTkzNzV9LHsieCI6MTQwNi4zNjMyODEyNSwieSI6NTc3LjM1OTM3NX0seyJ4IjoxNDA2LjM2MzI4MTI1LCJ5Ijo2NzIuMjM0Mzc1fSx7IngiOjE0MDYuMzYzMjgxMjUsInkiOjc2Ny4xMDkzNzV9LHsieCI6MTQwNi4zNjMyODEyNSwieSI6Nzk0LjEwOTM3NX0seyJ4IjoxNDA2LjM2MzI4MTI1LCJ5Ijo4MjEuMTA5Mzc1fSx7IngiOjkzMS45NDE0MDYyNSwieSI6ODk3LjM0NDMxMzYwMzIyMzN9XQ==" data-look="neo" marker-end="url(#my-svg_flowchart-v2-pointEnd-margin__8b949e)"/><path d="M438.168,740.109L438.168,744.609C438.168,749.109,438.168,758.109,438.168,767.109C438.168,776.109,438.168,785.109,451.18,794.109C464.191,803.109,490.215,812.109,533.208,826.1C576.201,840.092,636.165,859.074,666.146,868.565L696.128,878.056" id="my-svg-L_learnings_pdf_0" class="edge-thickness-normal edge-pattern-solid edge-thickness-normal edge-pattern-solid flowchart-link" style="stroke-dasharray: 0 0 313.8883361816406 4; stroke-dashoffset: 0;stroke:#8b949e;stroke-width:1.5px;;;stroke:#8b949e;stroke-width:1.5px" data-edge="true" data-et="edge" data-id="L_learnings_pdf_0" data-points="W3sieCI6NDM4LjE2Nzk2ODc1LCJ5Ijo3NDAuMTA5Mzc1fSx7IngiOjQzOC4xNjc5Njg3NSwieSI6NzY3LjEwOTM3NX0seyJ4Ijo0MzguMTY3OTY4NzUsInkiOjc5NC4xMDkzNzV9LHsieCI6NTE2LjIzODI4MTI1LCJ5Ijo4MjEuMTA5Mzc1fSx7IngiOjY5OS45NDE0MDYyNSwieSI6ODc5LjI2MzAzNjE3NTEyMTJ9XQ==" data-look="neo" marker-end="url(#my-svg_flowchart-v2-pointEnd-margin__8b949e)"/><path d="M815.941,983.859L815.941,988.359C815.941,992.859,815.941,1001.859,815.941,1010.859C815.941,1019.859,815.941,1028.859,808.27,1037.648C800.598,1046.437,785.255,1055.015,777.583,1059.304L769.911,1063.593" id="my-svg-L_pdf_Deploy_0" class="edge-thickness-normal edge-pattern-solid edge-thickness-normal edge-pattern-solid flowchart-link" style="stroke-dasharray: 0 0 98.12571716308594 4; stroke-dashoffset: 0;stroke:#8b949e;stroke-width:1.5px;;;stroke:#8b949e;stroke-width:1.5px" data-edge="true" data-et="edge" data-id="L_pdf_Deploy_0" data-points="W3sieCI6ODE1Ljk0MTQwNjI1LCJ5Ijo5ODMuODU5Mzc1fSx7IngiOjgxNS45NDE0MDYyNSwieSI6MTAxMC44NTkzNzV9LHsieCI6ODE1Ljk0MTQwNjI1LCJ5IjoxMDM3Ljg1OTM3NX0seyJ4Ijo3NjYuNDE5Njc1ODIwMzcyNSwieSI6MTA2NS41NDUwOTgwNTk1ODA0fV0=" data-look="neo" marker-end="url(#my-svg_flowchart-v2-pointEnd-margin__8b949e)"/><path d="M626.099,496.359L622.777,500.859C619.455,505.359,612.812,514.359,609.49,523.359C606.168,532.359,606.168,541.359,606.168,550.359C606.168,559.359,606.168,568.359,606.168,588.672C606.168,608.984,606.168,640.609,606.168,672.234C606.168,703.859,606.168,735.484,606.168,755.797C606.168,776.109,606.168,785.109,579.513,794.109C552.858,803.109,499.548,812.109,472.893,832.422C446.238,852.734,446.238,884.359,446.238,915.984C446.238,947.609,446.238,979.234,446.238,999.547C446.238,1019.859,446.238,1028.859,465.225,1039.56C484.212,1050.26,522.186,1062.661,541.172,1068.861L560.159,1075.062" id="my-svg-L_meta_Deploy_0" class="edge-thickness-normal edge-pattern-solid edge-thickness-normal edge-pattern-solid flowchart-link" style="stroke-dasharray: 0 0 750.8262329101562 4; stroke-dashoffset: 0;stroke:#8b949e;stroke-width:1.5px;;;stroke:#8b949e;stroke-width:1.5px" data-edge="true" data-et="edge" data-id="L_meta_Deploy_0" data-points="W3sieCI6NjI2LjA5ODc2NDU5Nzc1MDksInkiOjQ5Ni4zNTkzNzV9LHsieCI6NjA2LjE2Nzk2ODc1LCJ5Ijo1MjMuMzU5Mzc1fSx7IngiOjYwNi4xNjc5Njg3NSwieSI6NTUwLjM1OTM3NX0seyJ4Ijo2MDYuMTY3OTY4NzUsInkiOjU3Ny4zNTkzNzV9LHsieCI6NjA2LjE2Nzk2ODc1LCJ5Ijo2NzIuMjM0Mzc1fSx7IngiOjYwNi4xNjc5Njg3NSwieSI6NzY3LjEwOTM3NX0seyJ4Ijo2MDYuMTY3OTY4NzUsInkiOjc5NC4xMDkzNzV9LHsieCI6NDQ2LjIzODI4MTI1LCJ5Ijo4MjEuMTA5Mzc1fSx7IngiOjQ0Ni4yMzgyODEyNSwieSI6OTE1Ljk4NDM3NX0seyJ4Ijo0NDYuMjM4MjgxMjUsInkiOjEwMTAuODU5Mzc1fSx7IngiOjQ0Ni4yMzgyODEyNSwieSI6MTAzNy44NTkzNzV9LHsieCI6NTYzLjk2MTY0MTc1NDQ3MDcsInkiOjEwNzYuMzAzNDEyMzg3NjQ5OH1d" data-look="neo" marker-end="url(#my-svg_flowchart-v2-pointEnd-margin__8b949e)"/><path d="M504,126.797Z" id="my-svg-L_TitleBlock_sources_0" class="edge-thickness-invisible edge-pattern-solid" style="stroke-dasharray: 0 0 0 0; stroke-dashoffset: 0;stroke:#8b949e;stroke-width:1.5px;;;stroke:#8b949e;stroke-width:1.5px" data-edge="true" data-et="edge" data-id="L_TitleBlock_sources_0" data-points="W3sieCI6NTA0LCJ5IjoxMjYuNzk2ODc1fSx7IngiOjUwNCwieSI6MTUzLjc5Njg3NX0seyJ4Ijo1MDQsInkiOjE4MC43OTY4NzV9LHsieCI6NTA0LCJ5IjoyMDcuNzk2ODc1fV0=" data-look="neo"/></g><g class="edgeLabels"><g class="edgeLabel"><g class="label" data-id="L_Create_prompt_0" transform="translate(0, 0)"><foreignObject width="0" height="0"><div xmlns="http://www.w3.org/1999/xhtml" class="labelBkg" style="display: table-cell; white-space: nowrap; line-height: 1.5; max-width: 200px; text-align: center;"><span class="edgeLabel"></span></div></foreignObject></g></g><g class="edgeLabel"><g class="label" data-id="L_Create_meta_0" transform="translate(0, 0)"><foreignObject width="0" height="0"><div xmlns="http://www.w3.org/1999/xhtml" class="labelBkg" style="display: table-cell; white-space: nowrap; line-height: 1.5; max-width: 200px; text-align: center;"><span class="edgeLabel"></span></div></foreignObject></g></g><g class="edgeLabel"><g class="label" data-id="L_Converge_prompt_0" transform="translate(0, 0)"><foreignObject width="0" height="0"><div xmlns="http://www.w3.org/1999/xhtml" class="labelBkg" style="display: table-cell; white-space: nowrap; line-height: 1.5; max-width: 200px; text-align: center;"><span class="edgeLabel"></span></div></foreignObject></g></g><g class="edgeLabel"><g class="label" data-id="L_Converge_meta_0" transform="translate(0, 0)"><foreignObject width="0" height="0"><div xmlns="http://www.w3.org/1999/xhtml" class="labelBkg" style="display: table-cell; white-space: nowrap; line-height: 1.5; max-width: 200px; text-align: center;"><span class="edgeLabel"></span></div></foreignObject></g></g><g class="edgeLabel"><g class="label" data-id="L_Converge_learnings_0" transform="translate(0, 0)"><foreignObject width="0" height="0"><div xmlns="http://www.w3.org/1999/xhtml" class="labelBkg" style="display: table-cell; white-space: nowrap; line-height: 1.5; max-width: 200px; text-align: center;"><span class="edgeLabel"></span></div></foreignObject></g></g><g class="edgeLabel"><g class="label" data-id="L_meta_tests_0" transform="translate(0, 0)"><foreignObject width="0" height="0"><div xmlns="http://www.w3.org/1999/xhtml" class="labelBkg" style="display: table-cell; white-space: nowrap; line-height: 1.5; max-width: 200px; text-align: center;"><span class="edgeLabel"></span></div></foreignObject></g></g><g class="edgeLabel"><g class="label" data-id="L_Test_tests_0" transform="translate(0, 0)"><foreignObject width="0" height="0"><div xmlns="http://www.w3.org/1999/xhtml" class="labelBkg" style="display: table-cell; white-space: nowrap; line-height: 1.5; max-width: 200px; text-align: center;"><span class="edgeLabel"></span></div></foreignObject></g></g><g class="edgeLabel"><g class="label" data-id="L_Harden_audit_0" transform="translate(0, 0)"><foreignObject width="0" height="0"><div xmlns="http://www.w3.org/1999/xhtml" class="labelBkg" style="display: table-cell; white-space: nowrap; line-height: 1.5; max-width: 200px; text-align: center;"><span class="edgeLabel"></span></div></foreignObject></g></g><g class="edgeLabel"><g class="label" data-id="L_Translate_prompt_0" transform="translate(0, 0)"><foreignObject width="0" height="0"><div xmlns="http://www.w3.org/1999/xhtml" class="labelBkg" style="display: table-cell; white-space: nowrap; line-height: 1.5; max-width: 200px; text-align: center;"><span class="edgeLabel"></span></div></foreignObject></g></g><g class="edgeLabel"><g class="label" data-id="L_prompt_pdf_0" transform="translate(0, 0)"><foreignObject width="0" height="0"><div xmlns="http://www.w3.org/1999/xhtml" class="labelBkg" style="display: table-cell; white-space: nowrap; line-height: 1.5; max-width: 200px; text-align: center;"><span class="edgeLabel"></span></div></foreignObject></g></g><g class="edgeLabel"><g class="label" data-id="L_meta_pdf_0" transform="translate(0, 0)"><foreignObject width="0" height="0"><div xmlns="http://www.w3.org/1999/xhtml" class="labelBkg" style="display: table-cell; white-space: nowrap; line-height: 1.5; max-width: 200px; text-align: center;"><span class="edgeLabel"></span></div></foreignObject></g></g><g class="edgeLabel"><g class="label" data-id="L_tests_pdf_0" transform="translate(0, 0)"><foreignObject width="0" height="0"><div xmlns="http://www.w3.org/1999/xhtml" class="labelBkg" style="display: table-cell; white-space: nowrap; line-height: 1.5; max-width: 200px; text-align: center;"><span class="edgeLabel"></span></div></foreignObject></g></g><g class="edgeLabel"><g class="label" data-id="L_audit_pdf_0" transform="translate(0, 0)"><foreignObject width="0" height="0"><div xmlns="http://www.w3.org/1999/xhtml" class="labelBkg" style="display: table-cell; white-space: nowrap; line-height: 1.5; max-width: 200px; text-align: center;"><span class="edgeLabel"></span></div></foreignObject></g></g><g class="edgeLabel"><g class="label" data-id="L_learnings_pdf_0" transform="translate(0, 0)"><foreignObject width="0" height="0"><div xmlns="http://www.w3.org/1999/xhtml" class="labelBkg" style="display: table-cell; white-space: nowrap; line-height: 1.5; max-width: 200px; text-align: center;"><span class="edgeLabel"></span></div></foreignObject></g></g><g class="edgeLabel"><g class="label" data-id="L_pdf_Deploy_0" transform="translate(0, 0)"><foreignObject width="0" height="0"><div xmlns="http://www.w3.org/1999/xhtml" class="labelBkg" style="display: table-cell; white-space: nowrap; line-height: 1.5; max-width: 200px; text-align: center;"><span class="edgeLabel"></span></div></foreignObject></g></g><g class="edgeLabel"><g class="label" data-id="L_meta_Deploy_0" transform="translate(0, 0)"><foreignObject width="0" height="0"><div xmlns="http://www.w3.org/1999/xhtml" class="labelBkg" style="display: table-cell; white-space: nowrap; line-height: 1.5; max-width: 200px; text-align: center;"><span class="edgeLabel"></span></div></foreignObject></g></g><g class="edgeLabel"><g class="label" data-id="L_TitleBlock_sources_0" transform="translate(0, 0)"><foreignObject width="0" height="0"><div xmlns="http://www.w3.org/1999/xhtml" class="labelBkg" style="display: table-cell; white-space: nowrap; line-height: 1.5; max-width: 200px; text-align: center;"><span class="edgeLabel"></span></div></foreignObject></g></g></g><g class="nodes"><g class="node default titleBlock" id="my-svg-flowchart-TitleBlock-0" data-look="neo" transform="translate(504, 75.3984375)"><rect class="basic label-container" style="fill:#06111f !important;stroke:#1e3a5f !important;stroke-width:1px !important;rx:4 !important;ry:4 !important" x="-496" y="-51.3984375" width="992" height="102.796875"/><g class="label" style="color:#e6edf3 !important" transform="translate(-480, -39.3984375)"><rect/><foreignObject width="960" height="78.796875"><div style="color: rgb(230, 237, 243) !important; display: table; white-space: break-spaces; line-height: 1.5; max-width: 200px; text-align: center; width: 200px;" xmlns="http://www.w3.org/1999/xhtml"><span style="color:#e6edf3 !important" class="nodeLabel"><p></p><div style="font-family:ui-monospace,SFMono-Regular,Consolas,monospace;text-align:center;min-width:940px;padding:6px 10px;line-height:1.8"><div style="color:&amp;58a6ff;font-size:15px;letter-spacing:6px;border-bottom:1px solid &amp;1e3a5f;padding-bottom:10px;margin-bottom:10px">WIXIE  ·  STATE FLOW  ·  PER-PROMPT ARTIFACTS</div><div style="display:flex;gap:40px;justify-content:center;font-size:11px;color:&amp;8b949e;letter-spacing:2px"><span>DWG  <b style="color:#e6edf3">WXE-003</b></span><span>REV  <b style="color:#e6edf3">A.1</b></span><span>SCALE  <b style="color:#e6edf3">1:1</b></span><span>ARTIFACTS  <b style="color:#e6edf3">n = 5</b></span><span>SHEET  <b style="color:#e6edf3">01 / 01</b></span></div></div><p></p></span></div></foreignObject></g></g><g class="node default sourceNode" id="my-svg-flowchart-Create-1" data-look="neo" transform="translate(504, 243.796875)"><rect class="basic label-container" style="fill:#0a1628 !important;stroke:#1e3a5f !important;stroke-width:1.5px !important;rx:8 !important;ry:8 !important" x="-59.6640625" y="-36" width="119.328125" height="72"/><g class="label" style="color:#e6edf3 !important" transform="translate(-43.6640625, -24)"><rect/><foreignObject width="87.328125" height="48"><div style="color: rgb(230, 237, 243) !important; display: table-cell; white-space: nowrap; line-height: 1.5; max-width: 200px; text-align: center;" xmlns="http://www.w3.org/1999/xhtml"><span style="color:#e6edf3 !important" class="nodeLabel"><p><b>/create</b><br /><small style="color:#6e7681">prompt-crafter</small></p></span></div></foreignObject></g></g><g class="node default sourceNode" id="my-svg-flowchart-Converge-2" data-look="neo" transform="translate(778.23828125, 243.796875)"><rect class="basic label-container" style="fill:#0a1628 !important;stroke:#1e3a5f !important;stroke-width:1.5px !important;rx:8 !important;ry:8 !important" x="-76.21875" y="-36" width="152.4375" height="72"/><g class="label" style="color:#e6edf3 !important" transform="translate(-60.21875, -24)"><rect/><foreignObject width="120.4375" height="48"><div style="color: rgb(230, 237, 243) !important; display: table-cell; white-space: nowrap; line-height: 1.5; max-width: 200px; text-align: center;" xmlns="http://www.w3.org/1999/xhtml"><span style="color:#e6edf3 !important" class="nodeLabel"><p><b>/converge</b><br /><small style="color:#6e7681">convergence-engine</small></p></span></div></foreignObject></g></g><g class="node default sourceNode" id="my-svg-flowchart-Test-3" data-look="neo" transform="translate(1076.48828125, 243.796875)"><rect class="basic label-container" style="fill:#0a1628 !important;stroke:#1e3a5f !important;stroke-width:1.5px !important;rx:8 !important;ry:8 !important" x="-64.875" y="-36" width="129.75" height="72"/><g class="label" style="color:#e6edf3 !important" transform="translate(-48.875, -24)"><rect/><foreignObject width="97.75" height="48"><div style="color: rgb(230, 237, 243) !important; display: table-cell; white-space: nowrap; line-height: 1.5; max-width: 200px; text-align: center;" xmlns="http://www.w3.org/1999/xhtml"><span style="color:#e6edf3 !important" class="nodeLabel"><p><b>/test-prompt</b><br /><small style="color:#6e7681">prompt-tester</small></p></span></div></foreignObject></g></g><g class="node default sourceNode" id="my-svg-flowchart-Harden-4" data-look="neo" transform="translate(1246.75390625, 243.796875)"><rect class="basic label-container" style="fill:#0a1628 !important;stroke:#1e3a5f !important;stroke-width:1.5px !important;rx:8 !important;ry:8 !important" x="-61.390625" y="-36" width="122.78125" height="72"/><g class="label" style="color:#e6edf3 !important" transform="translate(-45.390625, -24)"><rect/><foreignObject width="90.78125" height="48"><div style="color: rgb(230, 237, 243) !important; display: table-cell; white-space: nowrap; line-height: 1.5; max-width: 200px; text-align: center;" xmlns="http://www.w3.org/1999/xhtml"><span style="color:#e6edf3 !important" class="nodeLabel"><p><b>/harden</b><br /><small style="color:#6e7681">prompt-harden</small></p></span></div></foreignObject></g></g><g class="node default sourceNode" id="my-svg-flowchart-Translate-5" data-look="neo" transform="translate(1436.28515625, 243.796875)"><rect class="basic label-container" style="fill:#0a1628 !important;stroke:#1e3a5f !important;stroke-width:1.5px !important;rx:8 !important;ry:8 !important" x="-84.140625" y="-36" width="168.28125" height="72"/><g class="label" style="color:#e6edf3 !important" transform="translate(-68.140625, -24)"><rect/><foreignObject width="136.28125" height="48"><div style="color: rgb(230, 237, 243) !important; display: table-cell; white-space: nowrap; line-height: 1.5; max-width: 200px; text-align: center;" xmlns="http://www.w3.org/1999/xhtml"><span style="color:#e6edf3 !important" class="nodeLabel"><p><b>/translate-prompt</b><br /><small style="color:#6e7681">prompt-translate</small></p></span></div></foreignObject></g></g><g class="node default artifactLine" id="my-svg-flowchart-prompt-6" data-look="neo" transform="translate(983.94140625, 442.078125)"><rect class="basic label-container" style="fill:#0a1628 !important;stroke:#1e3a5f !important;stroke-width:1px !important;rx:6 !important;ry:6 !important" x="-116" y="-54.28125" width="232" height="108.5625"/><g class="label" style="color:#c9d1d9 !important" transform="translate(-100, -42.28125)"><rect/><foreignObject width="200" height="84.5625"><div style="color: rgb(201, 209, 217) !important; display: table; white-space: break-spaces; line-height: 1.5; max-width: 200px; text-align: center; width: 200px;" xmlns="http://www.w3.org/1999/xhtml"><span style="color:#c9d1d9 !important" class="nodeLabel"><p></p><div style="text-align:center;line-height:1.7"><code>prompt.xml</code><br /><small style="color:#6e7681">Production-ready prompt · format matches target model</small></div><p></p></span></div></foreignObject></g></g><g class="node default artifactLine" id="my-svg-flowchart-meta-7" data-look="neo" transform="translate(666.16796875, 442.078125)"><rect class="basic label-container" style="fill:#0a1628 !important;stroke:#1e3a5f !important;stroke-width:1px !important;rx:6 !important;ry:6 !important" x="-116" y="-54.28125" width="232" height="108.5625"/><g class="label" style="color:#c9d1d9 !important" transform="translate(-100, -42.28125)"><rect/><foreignObject width="200" height="84.5625"><div style="color: rgb(201, 209, 217) !important; display: table; white-space: break-spaces; line-height: 1.5; max-width: 200px; text-align: center; width: 200px;" xmlns="http://www.w3.org/1999/xhtml"><span style="color:#c9d1d9 !important" class="nodeLabel"><p></p><div style="text-align:center;line-height:1.7"><code>metadata.json</code><br /><small style="color:#6e7681">model · tokens · cost · 5-axis scores · 8 assertions</small></div><p></p></span></div></foreignObject></g></g><g class="node default artifactLine" id="my-svg-flowchart-tests-8" data-look="neo" transform="translate(1222.38671875, 672.234375)"><rect class="basic label-container" style="fill:#0a1628 !important;stroke:#1e3a5f !important;stroke-width:1px !important;rx:6 !important;ry:6 !important" x="-116" y="-54.28125" width="232" height="108.5625"/><g class="label" style="color:#c9d1d9 !important" transform="translate(-100, -42.28125)"><rect/><foreignObject width="200" height="84.5625"><div style="color: rgb(201, 209, 217) !important; display: table; white-space: break-spaces; line-height: 1.5; max-width: 200px; text-align: center; width: 200px;" xmlns="http://www.w3.org/1999/xhtml"><span style="color:#c9d1d9 !important" class="nodeLabel"><p></p><div style="text-align:center;line-height:1.7"><code>tests.json</code><br /><small style="color:#6e7681">Regression test cases · ≥ 3 · ≥ 1 edge-case</small></div><p></p></span></div></foreignObject></g></g><g class="node default artifactLine" id="my-svg-flowchart-audit-9" data-look="neo" transform="translate(1406.36328125, 442.078125)"><rect class="basic label-container" style="fill:#0a1628 !important;stroke:#1e3a5f !important;stroke-width:1px !important;rx:6 !important;ry:6 !important" x="-116" y="-54.28125" width="232" height="108.5625"/><g class="label" style="color:#c9d1d9 !important" transform="translate(-100, -42.28125)"><rect/><foreignObject width="200" height="84.5625"><div style="color: rgb(201, 209, 217) !important; display: table; white-space: break-spaces; line-height: 1.5; max-width: 200px; text-align: center; width: 200px;" xmlns="http://www.w3.org/1999/xhtml"><span style="color:#c9d1d9 !important" class="nodeLabel"><p></p><div style="text-align:center;line-height:1.7"><code>audit.json</code><br /><small style="color:#6e7681">12 attack patterns · VULNERABLE / RESISTANT verdict</small></div><p></p></span></div></foreignObject></g></g><g class="node default artifactLine" id="my-svg-flowchart-learnings-10" data-look="neo" transform="translate(438.16796875, 672.234375)"><rect class="basic label-container" style="fill:#0a1628 !important;stroke:#1e3a5f !important;stroke-width:1px !important;rx:6 !important;ry:6 !important" x="-116" y="-67.875" width="232" height="135.75"/><g class="label" style="color:#c9d1d9 !important" transform="translate(-100, -55.875)"><rect/><foreignObject width="200" height="111.75"><div style="color: rgb(201, 209, 217) !important; display: table; white-space: break-spaces; line-height: 1.5; max-width: 200px; text-align: center; width: 200px;" xmlns="http://www.w3.org/1999/xhtml"><span style="color:#c9d1d9 !important" class="nodeLabel"><p></p><div style="text-align:center;line-height:1.7"><code>learnings.md</code><br /><small style="color:#6e7681">F6 Gauss Accumulation · hypothesis · outcome · persists across sessions</small></div><p></p></span></div></foreignObject></g></g><g class="node default artifactLine" id="my-svg-flowchart-pdf-11" data-look="neo" transform="translate(815.94140625, 915.984375)"><rect class="basic label-container" style="fill:#0a1628 !important;stroke:#1e3a5f !important;stroke-width:1px !important;rx:6 !important;ry:6 !important" x="-116" y="-67.875" width="232" height="135.75"/><g class="label" style="color:#c9d1d9 !important" transform="translate(-100, -55.875)"><rect/><foreignObject width="200" height="111.75"><div style="color: rgb(201, 209, 217) !important; display: table; white-space: break-spaces; line-height: 1.5; max-width: 200px; text-align: center; width: 200px;" xmlns="http://www.w3.org/1999/xhtml"><span style="color:#c9d1d9 !important" class="nodeLabel"><p></p><div style="text-align:center;line-height:1.7"><code>report.pdf</code><br /><small style="color:#6e7681">Dark-themed single-page · scores · assertions · technique pills · verdict</small></div><p></p></span></div></foreignObject></g></g><g class="node default deployNode" id="my-svg-flowchart-Deploy-12" data-look="neo" transform="translate(677.94140625, 1112.859375)"><g class="basic label-container outer-path"><path d="M-84 -48 C-25.1811724306556 -48, 33.6376551386888 -48, 84 -48 C84 -48, 84 -48, 84 -48 C84.90313327346468 -47.97103827376226, 85.80626654692935 -47.94207654752453, 87.07537055907422 -47.901378852016144 C87.76187192617863 -47.835152890770274, 88.44837329328304 -47.7689269295244, 90.13810376085628 -47.60592066351582 C91.25857051318495 -47.42477228834876, 92.3790372655136 -47.24362391318171, 93.17561417766586 -47.11483953557114 C93.82298917726456 -46.96708041642941, 94.47036417686327 -46.81932129728768, 96.17542002765634 -46.430153425873414 C96.95638314079983 -46.19836767325146, 97.73734625394331 -45.96658192062951, 99.12519446513379 -45.55467585651209 C99.9085944388405 -45.26637742451805, 100.69199441254722 -44.97807899252401, 102.01281623420996 -44.492004352609044 C102.71173045927657 -44.18261575772591, 103.41064468434318 -43.87322716284279, 104.82641947764279 -43.24650565931612 C105.77370802369558 -42.75230583160766, 106.72099656974835 -42.258106003899194, 107.55444249618901 -41.8232977979227 C108.42932165945369 -41.292940907791, 109.30420082271837 -40.7625840176593, 110.18567525810633 -40.22822903480835 C111.03633751645526 -39.634843867959795, 111.8869997748042 -39.04145870111124, 112.70930546357837 -38.46785384966192 C113.4982244920874 -37.83871191844302, 114.28714352059642 -37.20956998722411, 115.11496297477383 -36.54940600171846 C115.87448203641053 -35.859630885713166, 116.63400109804722 -35.16985576970787, 117.39276242896734 -34.480768804690925 C118.12228864946172 -33.72747308681388, 118.8518148699561 -32.97417736893684, 119.53334385961514 -32.270442732543216 C120.299618745768 -31.370332648991855, 121.06589363192084 -30.47022256544049, 121.52791115846543 -29.927510489219213 C121.8990330808169 -29.430240923170896, 122.27015500316838 -28.932971357122575, 123.36826822065387 -27.461599685864154 C123.76177063816117 -26.85707430237863, 124.15527305566846 -26.25254891889311, 125.04685262425662 -24.882843278905206 C125.45499395713604 -24.158147013586305, 125.86313529001545 -23.4334507482674, 126.55676670590401 -22.201837931560092 C127.06827774481935 -21.139674314669442, 127.57978878373468 -20.07751069777879, 127.891805904759 -19.429600469874913 C128.15403193099934 -18.781897115265938, 128.41625795723968 -18.13419376065696, 129.0464842583885 -16.57752261222279 C129.34852058848455 -15.667837308927474, 129.65055691858058 -14.758152005632157, 130.01605694575971 -13.65732415828957 C130.3278805569825 -12.468205583489116, 130.63970416820527 -11.27908700868866, 130.79653978472754 -10.681004829903095 C130.98302366054335 -9.72344954096995, 131.1695075363592 -8.765894252036805, 131.3847256038936 -7.660794961602221 C131.48886209356144 -6.853132911814261, 131.5929985832293 -6.045470862026301, 131.77819742156152 -4.609105243568733 C131.82228068011557 -3.9224729082235097, 131.86636393866962 -3.2358405728782866, 131.97533837763302 -1.538475723439448 C131.97533837763302 -0.5526397077710433, 131.97533837763302 0.4331963078973613, 131.97533837763302 1.5384757234394364 C131.93030363535533 2.2399281858041737, 131.88526889307764 2.9413806481689115, 131.77819742156152 4.609105243568701 C131.63804286148556 5.696116334869583, 131.49788830140957 6.783127426170465, 131.3847256038936 7.660794961602187 C131.22033358728947 8.50491322259934, 131.05594157068538 9.349031483596491, 130.79653978472754 10.681004829903085 C130.48456487404803 11.870700375105653, 130.17258996336852 13.06039592030822, 130.01605694575971 13.657324158289539 C129.78819165382464 14.34361811219409, 129.56032636188957 15.02991206609864, 129.0464842583885 16.577522612222758 C128.62581040943695 17.61659515230862, 128.20513656048544 18.65566769239448, 127.891805904759 19.429600469874902 C127.47164789660852 20.30206756374058, 127.05148988845805 21.17453465760625, 126.55676670590401 22.201837931560082 C126.2523137065833 22.742425061063187, 125.94786070726259 23.283012190566293, 125.04685262425662 24.8828432789052 C124.62584318086421 25.529626840820946, 124.2048337374718 26.176410402736693, 123.36826822065389 27.46159968586413 C122.6738938244752 28.39199811793472, 121.97951942829651 29.32239655000531, 121.52791115846543 29.927510489219202 C120.7994000079244 30.78326114010348, 120.07088885738338 31.639011790987762, 119.53334385961516 32.27044273254319 C118.78576088404208 33.04238353252616, 118.038177908469 33.81432433250913, 117.39276242896736 34.48076880469091 C116.75059241825308 35.0639706175342, 116.10842240753881 35.6471724303775, 115.11496297477387 36.549406001718424 C114.43844613653934 37.088910177341326, 113.7619292983048 37.62841435296423, 112.70930546357837 38.467853849661914 C111.97576516096593 38.97953981031644, 111.2422248583535 39.49122577097097, 110.18567525810636 40.22822903480834 C109.60544037418578 40.57997083127966, 109.0252054902652 40.931712627750976, 107.55444249618901 41.82329779792269 C106.86245828415066 42.18430551810605, 106.17047407211233 42.54531323828942, 104.8264194776428 43.246505659316114 C103.8467352298348 43.68018281452005, 102.8670509820268 44.11385996972399, 102.01281623420998 44.49200435260904 C101.0015796026566 44.864148780789634, 99.99034297110322 45.236293208970224, 99.12519446513383 45.554675856512084 C98.19402126832819 45.83104317349615, 97.26284807152253 46.10741049048021, 96.1754200276564 46.4301534258734 C95.56571408405146 46.56931482879812, 94.95600814044651 46.708476231722834, 93.17561417766589 47.114839535571136 C92.56127713511682 47.21416078435555, 91.94694009256777 47.31348203313996, 90.13810376085631 47.60592066351581 C89.25633506761123 47.690983828871154, 88.37456637436614 47.776046994226505, 87.07537055907422 47.901378852016144 C86.41535594783589 47.92254423595805, 85.75534133659757 47.943709619899955, 84.00000000000001 48 C84.00000000000001 48, 84 48, 84 48 C47.597702399687954 48, 11.195404799375908 48, -83.99999999999999 48 C-85.22668942978616 47.96066245759288, -86.45337885957235 47.92132491518577, -87.0753705590742 47.901378852016144 C-88.00405349421172 47.81178992616807, -88.93273642934923 47.72220100031999, -90.1381037608563 47.60592066351581 C-90.96372312855577 47.47244092691998, -91.78934249625524 47.338961190324156, -93.17561417766586 47.114839535571136 C-93.88887352622312 46.95204274371517, -94.6021328747804 46.78924595185921, -96.17542002765634 46.430153425873414 C-97.26208180954032 46.107637913014344, -98.3487435914243 45.785122400155274, -99.12519446513377 45.554675856512105 C-99.74854086296165 45.325278619960514, -100.37188726078952 45.095881383408916, -102.01281623420996 44.492004352609044 C-102.7781709429379 44.15320452649597, -103.54352565166583 43.814404700382894, -104.82641947764279 43.24650565931613 C-105.86806724786766 42.703078684797056, -106.90971501809253 42.15965171027798, -107.554442496189 41.823297797922706 C-108.37158920011026 41.32793866391857, -109.18873590403153 40.83257952991445, -110.1856752581063 40.22822903480837 C-111.16757860470183 39.543295766134136, -112.14948195129735 38.8583624974599, -112.70930546357836 38.46785384966192 C-113.61380136060636 37.74654244142877, -114.51829725763437 37.02523103319562, -115.11496297477383 36.54940600171847 C-115.88246664475611 35.85237947567489, -116.64997031473837 35.15535294963131, -117.39276242896733 34.480768804690946 C-118.24069582625708 33.60520795536266, -119.08862922354683 32.72964710603438, -119.53334385961514 32.2704427325432 C-120.00918588226807 31.71149161655695, -120.48502790492101 31.152540500570694, -121.52791115846543 29.927510489219216 C-122.24825388394625 28.962316861647228, -122.96859660942708 27.997123234075236, -123.36826822065387 27.461599685864158 C-123.74559295696145 26.88192756501706, -124.12291769326902 26.302255444169965, -125.04685262425659 24.882843278905227 C-125.49203826182358 24.092371099470945, -125.93722389939056 23.30189892003666, -126.556766705904 22.2018379315601 C-127.01606392439692 21.24809742997341, -127.47536114288982 20.29435692838672, -127.891805904759 19.42960046987492 C-128.3346666845629 18.335725781628543, -128.77752746436684 17.241851093382166, -129.0464842583885 16.577522612222793 C-129.3502756303628 15.662551402418096, -129.65406700233711 14.7475801926134, -130.01605694575971 13.657324158289558 C-130.26100448788864 12.723233019215655, -130.50595203001757 11.78914188014175, -130.79653978472754 10.681004829903102 C-130.92704961072224 10.0108644566819, -131.0575594367169 9.340724083460696, -131.3847256038936 7.660794961602226 C-131.4977130722639 6.7844864688213775, -131.6107005406342 5.908177976040529, -131.77819742156152 4.60910524356876 C-131.8462694673842 3.5488281831143573, -131.91434151320684 2.4885511226599544, -131.97533837763302 1.538475723439454 C-131.97533837763302 0.7816028520970062, -131.97533837763302 0.024729980754558456, -131.97533837763302 -1.5384757234394306 C-131.92861257234375 -2.266267857211036, -131.88188676705448 -2.9940599909826413, -131.77819742156152 -4.6091052435686946 C-131.67378811769024 -5.4188831864453215, -131.56937881381893 -6.2286611293219485, -131.3847256038936 -7.660794961602203 C-131.22481568816323 -8.481898581905028, -131.06490577243287 -9.303002202207853, -130.79653978472754 -10.681004829903081 C-130.52446969971064 -11.718525979993293, -130.25239961469373 -12.756047130083505, -130.01605694575971 -13.657324158289534 C-129.7657289946747 -14.411272062614962, -129.51540104358972 -15.16521996694039, -129.04648425838852 -16.577522612222733 C-128.80999561546534 -17.16165413243987, -128.57350697254213 -17.745785652657013, -127.891805904759 -19.429600469874895 C-127.39804934043887 -20.454896540383682, -126.90429277611875 -21.48019261089247, -126.55676670590401 -22.20183793156008 C-126.19131096183257 -22.85074161156584, -125.82585521776114 -23.499645291571603, -125.04685262425662 -24.882843278905213 C-124.49530300130554 -25.73017161156943, -123.94375337835447 -26.577499944233644, -123.36826822065387 -27.461599685864144 C-122.64473547714259 -28.43106764698034, -121.9212027336313 -29.400535608096533, -121.52791115846544 -29.927510489219202 C-120.93218726361766 -30.62728167375729, -120.3364633687699 -31.327052858295385, -119.53334385961517 -32.27044273254319 C-119.07954284111541 -32.7390295419007, -118.62574182261567 -33.20761635125822, -117.39276242896737 -34.480768804690896 C-116.65738752030109 -35.14861683978775, -115.9220126116348 -35.816464874884595, -115.11496297477387 -36.549406001718424 C-114.24699412067291 -37.2415880652427, -113.37902526657193 -37.93377012876698, -112.70930546357837 -38.46785384966191 C-111.89130513296043 -39.03845546963739, -111.07330480234249 -39.60905708961288, -110.18567525810636 -40.22822903480834 C-109.25226258143985 -40.79406928474532, -108.31884990477334 -41.35990953468231, -107.55444249618901 -41.823297797922685 C-106.95553199958492 -42.13574902038056, -106.35662150298084 -42.44820024283843, -104.8264194776428 -43.246505659316114 C-103.98342907421267 -43.61967250449279, -103.14043867078253 -43.992839349669474, -102.01281623420998 -44.49200435260903 C-100.91867990378702 -44.89465663629005, -99.82454357336405 -45.29730891997107, -99.12519446513383 -45.554675856512084 C-98.12695517282813 -45.85094803860344, -97.12871588052245 -46.1472202206948, -96.1754200276564 -46.4301534258734 C-95.36311659936436 -46.6155563826058, -94.5508131710723 -46.80095933933821, -93.17561417766589 -47.11483953557113 C-92.40356003108862 -47.239659262620414, -91.63150588451136 -47.3644789896697, -90.13810376085632 -47.60592066351581 C-89.10358907739024 -47.70571905084385, -88.06907439392415 -47.80551743817188, -87.07537055907422 -47.901378852016144 C-86.29708552373933 -47.92633693825941, -85.51880048840442 -47.951295024502684, -84.00000000000001 -48 C-84.00000000000001 -48, -84 -48, -84 -48" stroke="none" stroke-width="0" fill="#0f1d33" style="fill:#0f1d33 !important;stroke:#3fb950 !important;stroke-width:2px !important;rx:14 !important;ry:14 !important"/><path d="M-84 -48 C-35.57329284464211 -48, 12.853414310715777 -48, 84 -48 M-84 -48 C-38.4125185538728 -48, 7.174962892254399 -48, 84 -48 M84 -48 C84 -48, 84 -48, 84 -48 M84 -48 C84 -48, 84 -48, 84 -48 M84 -48 C85.16107536086986 -47.962766573073, 86.32215072173972 -47.92553314614599, 87.07537055907422 -47.901378852016144 M84 -48 C84.7415576776212 -47.976219688633144, 85.4831153552424 -47.95243937726629, 87.07537055907422 -47.901378852016144 M87.07537055907422 -47.901378852016144 C87.80619034894842 -47.83087754582637, 88.53701013882261 -47.7603762396366, 90.13810376085628 -47.60592066351582 M87.07537055907422 -47.901378852016144 C87.97485835125407 -47.814606346496895, 88.87434614343394 -47.727833840977645, 90.13810376085628 -47.60592066351582 M90.13810376085628 -47.60592066351582 C91.25543084055916 -47.425279886270374, 92.37275792026203 -47.24463910902493, 93.17561417766586 -47.11483953557114 M90.13810376085628 -47.60592066351582 C91.02475291826693 -47.46257410381258, 91.91140207567757 -47.31922754410933, 93.17561417766586 -47.11483953557114 M93.17561417766586 -47.11483953557114 C94.28463863619514 -46.861711939972764, 95.39366309472442 -46.608584344374385, 96.17542002765634 -46.430153425873414 M93.17561417766586 -47.11483953557114 C94.22905806995004 -46.874397841521116, 95.2825019622342 -46.633956147471096, 96.17542002765634 -46.430153425873414 M96.17542002765634 -46.430153425873414 C97.00388925014137 -46.18426810936355, 97.8323584726264 -45.93838279285368, 99.12519446513379 -45.55467585651209 M96.17542002765634 -46.430153425873414 C97.04224009459746 -46.172885780036665, 97.90906016153859 -45.915618134199924, 99.12519446513379 -45.55467585651209 M99.12519446513379 -45.55467585651209 C99.76856708382988 -45.31790878556064, 100.41193970252597 -45.08114171460918, 102.01281623420996 -44.492004352609044 M99.12519446513379 -45.55467585651209 C99.71489614408894 -45.33766018751403, 100.30459782304409 -45.120644518515974, 102.01281623420996 -44.492004352609044 M102.01281623420996 -44.492004352609044 C102.94783852751335 -44.07809771981449, 103.88286082081673 -43.66419108701993, 104.82641947764279 -43.24650565931612 M102.01281623420996 -44.492004352609044 C103.00212634211545 -44.05406611468094, 103.99143645002094 -43.61612787675284, 104.82641947764279 -43.24650565931612 M104.82641947764279 -43.24650565931612 C105.8759846760057 -42.69894816760878, 106.92554987436861 -42.15139067590145, 107.55444249618901 -41.8232977979227 M104.82641947764279 -43.24650565931612 C105.5677131536438 -42.859773223367654, 106.3090068296448 -42.473040787419194, 107.55444249618901 -41.8232977979227 M107.55444249618901 -41.8232977979227 C108.43186613094898 -41.291398434217584, 109.30928976570893 -40.759499070512476, 110.18567525810633 -40.22822903480835 M107.55444249618901 -41.8232977979227 C108.4610466929857 -41.273709006026905, 109.36765088978238 -40.72412021413111, 110.18567525810633 -40.22822903480835 M110.18567525810633 -40.22822903480835 C110.95183424604105 -39.69378969131314, 111.71799323397575 -39.15935034781793, 112.70930546357837 -38.46785384966192 M110.18567525810633 -40.22822903480835 C110.96760755779341 -39.68278691185034, 111.7495398574805 -39.137344788892335, 112.70930546357837 -38.46785384966192 M112.70930546357837 -38.46785384966192 C113.28353502278296 -38.00992105708659, 113.85776458198752 -37.55198826451127, 115.11496297477383 -36.54940600171846 M112.70930546357837 -38.46785384966192 C113.65686009760275 -37.71220424451527, 114.60441473162713 -36.95655463936862, 115.11496297477383 -36.54940600171846 M115.11496297477383 -36.54940600171846 C115.73554050223676 -35.985813910858234, 116.3561180296997 -35.42222181999801, 117.39276242896734 -34.480768804690925 M115.11496297477383 -36.54940600171846 C115.94686662125412 -35.793893120949384, 116.7787702677344 -35.03838024018031, 117.39276242896734 -34.480768804690925 M117.39276242896734 -34.480768804690925 C118.24626564655573 -33.59945665861356, 119.09976886414412 -32.71814451253619, 119.53334385961514 -32.270442732543216 M117.39276242896734 -34.480768804690925 C118.24040931755421 -33.60550379912117, 119.08805620614109 -32.73023879355143, 119.53334385961514 -32.270442732543216 M119.53334385961514 -32.270442732543216 C120.31808781659315 -31.348637827480722, 121.10283177357115 -30.42683292241823, 121.52791115846543 -29.927510489219213 M119.53334385961514 -32.270442732543216 C120.32178006026255 -31.344300707972025, 121.11021626090997 -30.418158683400836, 121.52791115846543 -29.927510489219213 M121.52791115846543 -29.927510489219213 C121.90821074950308 -29.417943683234242, 122.28851034054072 -28.908376877249275, 123.36826822065387 -27.461599685864154 M121.52791115846543 -29.927510489219213 C121.92434347463048 -29.396327301285016, 122.32077579079554 -28.86514411335082, 123.36826822065387 -27.461599685864154 M123.36826822065387 -27.461599685864154 C123.89438298625817 -26.65334612430012, 124.42049775186244 -25.84509256273609, 125.04685262425662 -24.882843278905206 M123.36826822065387 -27.461599685864154 C123.87889719914692 -26.67713645181908, 124.38952617763995 -25.892673217774007, 125.04685262425662 -24.882843278905206 M125.04685262425662 -24.882843278905206 C125.6471358733656 -23.8169795848419, 126.2474191224746 -22.751115890778593, 126.55676670590401 -22.201837931560092 M125.04685262425662 -24.882843278905206 C125.41675694609987 -24.226040698598254, 125.7866612679431 -23.569238118291306, 126.55676670590401 -22.201837931560092 M126.55676670590401 -22.201837931560092 C126.82437058370748 -21.646152753495453, 127.09197446151096 -21.09046757543081, 127.891805904759 -19.429600469874913 M126.55676670590401 -22.201837931560092 C126.88692391608505 -21.51625942038652, 127.21708112626611 -20.83068090921294, 127.891805904759 -19.429600469874913 M127.891805904759 -19.429600469874913 C128.1901946958164 -18.69257438700833, 128.48858348687378 -17.955548304141754, 129.0464842583885 -16.57752261222279 M127.891805904759 -19.429600469874913 C128.20710666577756 -18.650801494233534, 128.52240742679612 -17.872002518592154, 129.0464842583885 -16.57752261222279 M129.0464842583885 -16.57752261222279 C129.31084811628662 -15.781300792894267, 129.57521197418475 -14.985078973565745, 130.01605694575971 -13.65732415828957 M129.0464842583885 -16.57752261222279 C129.42114897749903 -15.449092172978165, 129.79581369660954 -14.320661733733543, 130.01605694575971 -13.65732415828957 M130.01605694575971 -13.65732415828957 C130.3066927337928 -12.549003936172062, 130.5973285218259 -11.440683714054554, 130.79653978472754 -10.681004829903095 M130.01605694575971 -13.65732415828957 C130.26939280417653 -12.691244733690702, 130.52272866259332 -11.725165309091834, 130.79653978472754 -10.681004829903095 M130.79653978472754 -10.681004829903095 C131.00510459977727 -9.610068584812028, 131.213669414827 -8.539132339720963, 131.3847256038936 -7.660794961602221 M130.79653978472754 -10.681004829903095 C130.99051524648277 -9.684981830518327, 131.184490708238 -8.688958831133558, 131.3847256038936 -7.660794961602221 M131.3847256038936 -7.660794961602221 C131.46804020329407 -7.014623380980746, 131.55135480269453 -6.36845180035927, 131.77819742156152 -4.609105243568733 M131.3847256038936 -7.660794961602221 C131.49580245785003 -6.79930481692201, 131.60687931180644 -5.9378146722417995, 131.77819742156152 -4.609105243568733 M131.77819742156152 -4.609105243568733 C131.84666685391988 -3.542638567056053, 131.91513628627825 -2.4761718905433727, 131.97533837763302 -1.538475723439448 M131.77819742156152 -4.609105243568733 C131.82242959667138 -3.920153412663288, 131.86666177178128 -3.231201581757843, 131.97533837763302 -1.538475723439448 M131.97533837763302 -1.538475723439448 C131.97533837763302 -0.5864587126225022, 131.97533837763302 0.36555829819444363, 131.97533837763302 1.5384757234394364 M131.97533837763302 -1.538475723439448 C131.97533837763302 -0.3644620900199238, 131.97533837763302 0.8095515433996003, 131.97533837763302 1.5384757234394364 M131.97533837763302 1.5384757234394364 C131.91803033356192 2.4310947680673474, 131.86072228949084 3.3237138126952583, 131.77819742156152 4.609105243568701 M131.97533837763302 1.5384757234394364 C131.93077213586042 2.232630912270418, 131.88620589408785 2.9267861011014, 131.77819742156152 4.609105243568701 M131.77819742156152 4.609105243568701 C131.68569531425675 5.326533321217195, 131.593193206952 6.0439613988656875, 131.3847256038936 7.660794961602187 M131.77819742156152 4.609105243568701 C131.67668618168452 5.396406374393148, 131.5751749418075 6.183707505217597, 131.3847256038936 7.660794961602187 M131.3847256038936 7.660794961602187 C131.1523574405911 8.853956369131863, 130.9199892772886 10.047117776661537, 130.79653978472754 10.681004829903085 M131.3847256038936 7.660794961602187 C131.1648859899602 8.789624916031345, 130.94504637602682 9.918454870460502, 130.79653978472754 10.681004829903085 M130.79653978472754 10.681004829903085 C130.626560001537 11.329211412912704, 130.45658021834643 11.977417995922323, 130.01605694575971 13.657324158289539 M130.79653978472754 10.681004829903085 C130.55963057338005 11.584442329872818, 130.32272136203252 12.487879829842553, 130.01605694575971 13.657324158289539 M130.01605694575971 13.657324158289539 C129.7527675465713 14.45030987917611, 129.4894781473829 15.243295600062682, 129.0464842583885 16.577522612222758 M130.01605694575971 13.657324158289539 C129.79973261955217 14.308858562225899, 129.58340829334466 14.960392966162258, 129.0464842583885 16.577522612222758 M129.0464842583885 16.577522612222758 C128.7316678620482 17.355125197744226, 128.4168514657079 18.132727783265693, 127.891805904759 19.429600469874902 M129.0464842583885 16.577522612222758 C128.7585959834492 17.288612217263946, 128.47070770850993 17.99970182230513, 127.891805904759 19.429600469874902 M127.891805904759 19.429600469874902 C127.39551175519964 20.460165890428577, 126.89921760564029 21.490731310982255, 126.55676670590401 22.201837931560082 M127.891805904759 19.429600469874902 C127.43262523239667 20.38309896092774, 126.97344456003435 21.33659745198058, 126.55676670590401 22.201837931560082 M126.55676670590401 22.201837931560082 C126.01696073688537 23.160318090834306, 125.47715476786674 24.11879825010853, 125.04685262425662 24.8828432789052 M126.55676670590401 22.201837931560082 C126.18352263569382 22.864570573278744, 125.81027856548363 23.52730321499741, 125.04685262425662 24.8828432789052 M125.04685262425662 24.8828432789052 C124.62092360611187 25.537184628731314, 124.19499458796713 26.19152597855743, 123.36826822065389 27.46159968586413 M125.04685262425662 24.8828432789052 C124.58724408510673 25.588925417212913, 124.12763554595685 26.29500755552063, 123.36826822065389 27.46159968586413 M123.36826822065389 27.46159968586413 C122.68344929103412 28.379194663266677, 121.99863036141436 29.296789640669225, 121.52791115846543 29.927510489219202 M123.36826822065389 27.46159968586413 C122.6605599471613 28.40986429879412, 121.95285167366873 29.358128911724112, 121.52791115846543 29.927510489219202 M121.52791115846543 29.927510489219202 C120.90587638689964 30.65818792668157, 120.28384161533386 31.388865364143943, 119.53334385961516 32.27044273254319 M121.52791115846543 29.927510489219202 C120.99506276544825 30.553424531589666, 120.46221437243108 31.17933857396013, 119.53334385961516 32.27044273254319 M119.53334385961516 32.27044273254319 C118.94515339999444 32.87779767343642, 118.35696294037372 33.48515261432964, 117.39276242896736 34.48076880469091 M119.53334385961516 32.27044273254319 C118.73633928941544 33.09341538656655, 117.93933471921571 33.91638804058991, 117.39276242896736 34.48076880469091 M117.39276242896736 34.48076880469091 C116.49484929257359 35.29622975768401, 115.59693615617982 36.11169071067711, 115.11496297477387 36.549406001718424 M117.39276242896736 34.48076880469091 C116.78313720139026 35.03441430657679, 116.17351197381316 35.588059808462674, 115.11496297477387 36.549406001718424 M115.11496297477387 36.549406001718424 C114.20070166136044 37.278505069650315, 113.286440347947 38.007604137582206, 112.70930546357837 38.467853849661914 M115.11496297477387 36.549406001718424 C114.45279667391189 37.07746600567056, 113.79063037304991 37.60552600962269, 112.70930546357837 38.467853849661914 M112.70930546357837 38.467853849661914 C112.03893928477724 38.93547227630941, 111.36857310597613 39.403090702956916, 110.18567525810636 40.22822903480834 M112.70930546357837 38.467853849661914 C111.72188324147558 39.15663684698175, 110.7344610193728 39.84541984430158, 110.18567525810636 40.22822903480834 M110.18567525810636 40.22822903480834 C109.61437359392107 40.574555460978694, 109.04307192973579 40.92088188714906, 107.55444249618901 41.82329779792269 M110.18567525810636 40.22822903480834 C109.30667453732497 40.76108443732762, 108.42767381654359 41.29393983984691, 107.55444249618901 41.82329779792269 M107.55444249618901 41.82329779792269 C106.61431458207572 42.31376192853493, 105.67418666796243 42.80422605914716, 104.8264194776428 43.246505659316114 M107.55444249618901 41.82329779792269 C106.88457565524544 42.17276689977276, 106.21470881430187 42.52223600162284, 104.8264194776428 43.246505659316114 M104.8264194776428 43.246505659316114 C103.76573310712125 43.71604005140275, 102.7050467365997 44.18557444348938, 102.01281623420998 44.49200435260904 M104.8264194776428 43.246505659316114 C103.90466909769 43.65453720976768, 102.98291871773722 44.06256876021925, 102.01281623420998 44.49200435260904 M102.01281623420998 44.49200435260904 C101.11768772452858 44.82141991864903, 100.22255921484718 45.150835484689026, 99.12519446513383 45.554675856512084 M102.01281623420998 44.49200435260904 C101.11082329132599 44.823946093521705, 100.208830348442 45.15588783443438, 99.12519446513383 45.554675856512084 M99.12519446513383 45.554675856512084 C98.33898567188825 45.7880184994532, 97.55277687864267 46.02136114239432, 96.1754200276564 46.4301534258734 M99.12519446513383 45.554675856512084 C98.09964153854396 45.85905458188679, 97.07408861195411 46.1634333072615, 96.1754200276564 46.4301534258734 M96.1754200276564 46.4301534258734 C95.49539430355881 46.58536485981611, 94.81536857946122 46.74057629375882, 93.17561417766589 47.114839535571136 M96.1754200276564 46.4301534258734 C95.43872154825644 46.59830004638959, 94.70202306885646 46.76644666690578, 93.17561417766589 47.114839535571136 M93.17561417766589 47.114839535571136 C92.10654720143991 47.28767799354913, 91.03748022521393 47.46051645152712, 90.13810376085631 47.60592066351581 M93.17561417766589 47.114839535571136 C92.263506636121 47.262302009388485, 91.3513990945761 47.40976448320584, 90.13810376085631 47.60592066351581 M90.13810376085631 47.60592066351581 C89.3542082786223 47.681542117914674, 88.57031279638827 47.757163572313544, 87.07537055907422 47.901378852016144 M90.13810376085631 47.60592066351581 C89.22500910426028 47.69400580688064, 88.31191444766425 47.78209095024547, 87.07537055907422 47.901378852016144 M87.07537055907422 47.901378852016144 C86.18852694623321 47.92981820054358, 85.30168333339219 47.95825754907102, 84.00000000000001 48 M87.07537055907422 47.901378852016144 C86.33666692620952 47.92506763972272, 85.59796329334482 47.948756427429295, 84.00000000000001 48 M84.00000000000001 48 C84.00000000000001 48, 84 48, 84 48 M84.00000000000001 48 C84.00000000000001 48, 84 48, 84 48 M84 48 C28.32601599593957 48, -27.34796800812086 48, -83.99999999999999 48 M84 48 C46.549057372819014 48, 9.098114745638028 48, -83.99999999999999 48 M-83.99999999999999 48 C-84.91831800118752 47.97055132909947, -85.83663600237506 47.94110265819894, -87.0753705590742 47.901378852016144 M-83.99999999999999 48 C-84.85380850872771 47.972620022962545, -85.70761701745542 47.9452400459251, -87.0753705590742 47.901378852016144 M-87.0753705590742 47.901378852016144 C-88.14510647350052 47.7981827148971, -89.21484238792684 47.69498657777806, -90.1381037608563 47.60592066351581 M-87.0753705590742 47.901378852016144 C-88.27625706483425 47.7855307750828, -89.47714357059432 47.66968269814945, -90.1381037608563 47.60592066351581 M-90.1381037608563 47.60592066351581 C-90.81399077254612 47.49664849304786, -91.48987778423594 47.387376322579904, -93.17561417766586 47.114839535571136 M-90.1381037608563 47.60592066351581 C-91.22175705032163 47.43072400353183, -92.30541033978695 47.25552734354785, -93.17561417766586 47.114839535571136 M-93.17561417766586 47.114839535571136 C-94.27559535032368 46.86377601095997, -95.3755765229815 46.61271248634879, -96.17542002765634 46.430153425873414 M-93.17561417766586 47.114839535571136 C-93.93419881490327 46.94169754234908, -94.69278345214067 46.76855554912702, -96.17542002765634 46.430153425873414 M-96.17542002765634 46.430153425873414 C-97.22700324345877 46.118049047296196, -98.2785864592612 45.80594466871897, -99.12519446513377 45.554675856512105 M-96.17542002765634 46.430153425873414 C-96.9221171283356 46.208537645884874, -97.66881422901487 45.986921865896335, -99.12519446513377 45.554675856512105 M-99.12519446513377 45.554675856512105 C-99.952382131534 45.25026314883786, -100.77956979793422 44.94585044116361, -102.01281623420996 44.492004352609044 M-99.12519446513377 45.554675856512105 C-100.26752031200107 45.13428938532057, -101.40984615886836 44.71390291412903, -102.01281623420996 44.492004352609044 M-102.01281623420996 44.492004352609044 C-102.6387614399245 44.21491697804403, -103.26470664563901 43.93782960347902, -104.82641947764279 43.24650565931613 M-102.01281623420996 44.492004352609044 C-102.66250990519342 44.20440423694267, -103.31220357617687 43.91680412127629, -104.82641947764279 43.24650565931613 M-104.82641947764279 43.24650565931613 C-105.4010524533869 42.94672000394041, -105.97568542913099 42.646934348564706, -107.554442496189 41.823297797922706 M-104.82641947764279 43.24650565931613 C-105.83015230179525 42.722858887877344, -106.8338851259477 42.19921211643857, -107.554442496189 41.823297797922706 M-107.554442496189 41.823297797922706 C-108.5881313310715 41.19666955158707, -109.62182016595398 40.57004130525143, -110.1856752581063 40.22822903480837 M-107.554442496189 41.823297797922706 C-108.19412230941984 41.43552013596632, -108.83380212265068 41.04774247400994, -110.1856752581063 40.22822903480837 M-110.1856752581063 40.22822903480837 C-111.01199194926585 39.6518262817285, -111.83830864042541 39.07542352864864, -112.70930546357836 38.46785384966192 M-110.1856752581063 40.22822903480837 C-110.94252451953916 39.70028375350928, -111.69937378097202 39.172338472210186, -112.70930546357836 38.46785384966192 M-112.70930546357836 38.46785384966192 C-113.4238844875854 37.89799609376275, -114.13846351159243 37.328138337863585, -115.11496297477383 36.54940600171847 M-112.70930546357836 38.46785384966192 C-113.37977333464141 37.9331735643885, -114.05024120570448 37.39849327911507, -115.11496297477383 36.54940600171847 M-115.11496297477383 36.54940600171847 C-115.93290705975102 35.80657082535676, -116.75085114472819 35.06373564899504, -117.39276242896733 34.480768804690946 M-115.11496297477383 36.54940600171847 C-115.6814323556214 36.034953497991204, -116.24790173646898 35.52050099426394, -117.39276242896733 34.480768804690946 M-117.39276242896733 34.480768804690946 C-117.83700898148226 34.02204776589901, -118.28125553399718 33.56332672710707, -119.53334385961514 32.2704427325432 M-117.39276242896733 34.480768804690946 C-118.0594089250225 33.79240156481877, -118.72605542107766 33.10403432494659, -119.53334385961514 32.2704427325432 M-119.53334385961514 32.2704427325432 C-120.29618594164394 31.374365016048046, -121.05902802367274 30.47828729955289, -121.52791115846543 29.927510489219216 M-119.53334385961514 32.2704427325432 C-119.99084471203122 31.733036198759304, -120.44834556444731 31.19562966497541, -121.52791115846543 29.927510489219216 M-121.52791115846543 29.927510489219216 C-122.03224187570487 29.251753273591902, -122.5365725929443 28.575996057964584, -123.36826822065387 27.461599685864158 M-121.52791115846543 29.927510489219216 C-122.22692086390505 28.990901165024326, -122.92593056934469 28.054291840829436, -123.36826822065387 27.461599685864158 M-123.36826822065387 27.461599685864158 C-123.81653757714045 26.77293757712416, -124.26480693362703 26.084275468384167, -125.04685262425659 24.882843278905227 M-123.36826822065387 27.461599685864158 C-123.87300280298601 26.68619182718922, -124.37773738531814 25.91078396851428, -125.04685262425659 24.882843278905227 M-125.04685262425659 24.882843278905227 C-125.49566741828228 24.085927164686563, -125.94448221230799 23.289011050467895, -126.556766705904 22.2018379315601 M-125.04685262425659 24.882843278905227 C-125.52681010336066 24.030630173791085, -126.00676758246473 23.178417068676943, -126.556766705904 22.2018379315601 M-126.556766705904 22.2018379315601 C-126.83540585080712 21.62323778524616, -127.11404499571023 21.04463763893222, -127.891805904759 19.42960046987492 M-126.556766705904 22.2018379315601 C-126.86061731011289 21.570885650558903, -127.16446791432179 20.939933369557703, -127.891805904759 19.42960046987492 M-127.891805904759 19.42960046987492 C-128.29757115936204 18.42735244606792, -128.70333641396505 17.425104422260922, -129.0464842583885 16.577522612222793 M-127.891805904759 19.42960046987492 C-128.1562485038962 18.77642213735621, -128.4206911030334 18.123243804837504, -129.0464842583885 16.577522612222793 M-129.0464842583885 16.577522612222793 C-129.2465246858777 15.97503271673913, -129.4465651133669 15.372542821255466, -130.01605694575971 13.657324158289558 M-129.0464842583885 16.577522612222793 C-129.43027376996636 15.42160975190478, -129.81406328154424 14.265696891586767, -130.01605694575971 13.657324158289558 M-130.01605694575971 13.657324158289558 C-130.24640429373932 12.778909887271212, -130.47675164171892 11.900495616252867, -130.79653978472754 10.681004829903102 M-130.01605694575971 13.657324158289558 C-130.31062009474988 12.53402720671375, -130.60518324374004 11.410730255137944, -130.79653978472754 10.681004829903102 M-130.79653978472754 10.681004829903102 C-131.02861655954598 9.489339640654132, -131.26069333436442 8.297674451405161, -131.3847256038936 7.660794961602226 M-130.79653978472754 10.681004829903102 C-130.99550652639348 9.659352663084228, -131.19447326805943 8.637700496265351, -131.3847256038936 7.660794961602226 M-131.3847256038936 7.660794961602226 C-131.5382249712267 6.470284180445248, -131.69172433855982 5.279773399288269, -131.77819742156152 4.60910524356876 M-131.3847256038936 7.660794961602226 C-131.52906375942757 6.541336730073507, -131.67340191496152 5.421878498544787, -131.77819742156152 4.60910524356876 M-131.77819742156152 4.60910524356876 C-131.83221897406884 3.7676759578546815, -131.8862405265762 2.926246672140603, -131.97533837763302 1.538475723439454 M-131.77819742156152 4.60910524356876 C-131.83674482595936 3.6971821614580134, -131.89529223035723 2.7852590793472665, -131.97533837763302 1.538475723439454 M-131.97533837763302 1.538475723439454 C-131.97533837763302 0.47268417348951997, -131.97533837763302 -0.593107376460414, -131.97533837763302 -1.5384757234394306 M-131.97533837763302 1.538475723439454 C-131.97533837763302 0.43307297290393665, -131.97533837763302 -0.6723297776315806, -131.97533837763302 -1.5384757234394306 M-131.97533837763302 -1.5384757234394306 C-131.90736154461428 -2.5972697676184717, -131.83938471159553 -3.6560638117975133, -131.77819742156152 -4.6091052435686946 M-131.97533837763302 -1.5384757234394306 C-131.9228376317096 -2.3562172190360267, -131.87033688578617 -3.1739587146326227, -131.77819742156152 -4.6091052435686946 M-131.77819742156152 -4.6091052435686946 C-131.64447406082408 -5.646237222783924, -131.51075070008662 -6.683369201999152, -131.3847256038936 -7.660794961602203 M-131.77819742156152 -4.6091052435686946 C-131.6792090739692 -5.376839320034628, -131.58022072637684 -6.144573396500561, -131.3847256038936 -7.660794961602203 M-131.3847256038936 -7.660794961602203 C-131.19006723373306 -8.660324551315455, -130.99540886357255 -9.659854141028708, -130.79653978472754 -10.681004829903081 M-131.3847256038936 -7.660794961602203 C-131.24465269584618 -8.380039740006106, -131.10457978779877 -9.099284518410007, -130.79653978472754 -10.681004829903081 M-130.79653978472754 -10.681004829903081 C-130.62412634791895 -11.338491988910459, -130.45171291111035 -11.995979147917838, -130.01605694575971 -13.657324158289534 M-130.79653978472754 -10.681004829903081 C-130.4944448871789 -11.833023603012865, -130.19234998963026 -12.98504237612265, -130.01605694575971 -13.657324158289534 M-130.01605694575971 -13.657324158289534 C-129.79784103730913 -14.314555706559329, -129.5796251288585 -14.971787254829122, -129.04648425838852 -16.577522612222733 M-130.01605694575971 -13.657324158289534 C-129.68859020695373 -14.643601800833835, -129.36112346814772 -15.629879443378137, -129.04648425838852 -16.577522612222733 M-129.04648425838852 -16.577522612222733 C-128.63560251936053 -17.59240845147987, -128.22472078033255 -18.60729429073701, -127.891805904759 -19.429600469874895 M-129.04648425838852 -16.577522612222733 C-128.76714050214483 -17.267507090888742, -128.48779674590116 -17.957491569554755, -127.891805904759 -19.429600469874895 M-127.891805904759 -19.429600469874895 C-127.38322569102863 -20.485678165559335, -126.87464547729826 -21.54175586124378, -126.55676670590401 -22.20183793156008 M-127.891805904759 -19.429600469874895 C-127.5407095641958 -20.158659533312626, -127.1896132236326 -20.88771859675036, -126.55676670590401 -22.20183793156008 M-126.55676670590401 -22.20183793156008 C-126.06367763699545 -23.07736750408975, -125.5705885680869 -23.95289707661942, -125.04685262425662 -24.882843278905213 M-126.55676670590401 -22.20183793156008 C-126.24860291275165 -22.7490139512699, -125.94043911959929 -23.296189970979725, -125.04685262425662 -24.882843278905213 M-125.04685262425662 -24.882843278905213 C-124.69525096810364 -25.42299784102067, -124.34364931195066 -25.963152403136128, -123.36826822065387 -27.461599685864144 M-125.04685262425662 -24.882843278905213 C-124.70477394918726 -25.40836798479776, -124.36269527411788 -25.933892690690307, -123.36826822065387 -27.461599685864144 M-123.36826822065387 -27.461599685864144 C-122.64863832432219 -28.425838187316355, -121.92900842799051 -29.39007668876857, -121.52791115846544 -29.927510489219202 M-123.36826822065387 -27.461599685864144 C-122.69069825605838 -28.36948171052848, -122.01312829146288 -29.277363735192814, -121.52791115846544 -29.927510489219202 M-121.52791115846544 -29.927510489219202 C-120.75771601661165 -30.83222552818576, -119.98752087475785 -31.73694056715232, -119.53334385961517 -32.27044273254319 M-121.52791115846544 -29.927510489219202 C-120.83493534439943 -30.741519311862017, -120.14195953033341 -31.55552813450483, -119.53334385961517 -32.27044273254319 M-119.53334385961517 -32.27044273254319 C-119.01682425731696 -32.803791628964106, -118.50030465501874 -33.337140525385024, -117.39276242896737 -34.480768804690896 M-119.53334385961517 -32.27044273254319 C-119.02657868282989 -32.793719383768774, -118.5198135060446 -33.31699603499436, -117.39276242896737 -34.480768804690896 M-117.39276242896737 -34.480768804690896 C-116.70314187202388 -35.10706394814691, -116.01352131508038 -35.73335909160293, -115.11496297477387 -36.549406001718424 M-117.39276242896737 -34.480768804690896 C-116.69407518190906 -35.11529807621772, -115.99538793485074 -35.74982734774455, -115.11496297477387 -36.549406001718424 M-115.11496297477387 -36.549406001718424 C-114.38414622635547 -37.13221291073167, -113.65332947793706 -37.71501981974492, -112.70930546357837 -38.46785384966191 M-115.11496297477387 -36.549406001718424 C-114.42976170775172 -37.09583577819709, -113.74456044072959 -37.64226555467576, -112.70930546357837 -38.46785384966191 M-112.70930546357837 -38.46785384966191 C-111.86476510723409 -39.05696864268489, -111.02022475088981 -39.64608343570788, -110.18567525810636 -40.22822903480834 M-112.70930546357837 -38.46785384966191 C-111.96724232792123 -38.985484969700934, -111.22517919226406 -39.50311608973996, -110.18567525810636 -40.22822903480834 M-110.18567525810636 -40.22822903480834 C-109.35219489932257 -40.733489726377336, -108.51871454053878 -41.23875041794633, -107.55444249618901 -41.823297797922685 M-110.18567525810636 -40.22822903480834 C-109.5288166258881 -40.62642059778884, -108.87195799366982 -41.024612160769344, -107.55444249618901 -41.823297797922685 M-107.55444249618901 -41.823297797922685 C-106.8082194762343 -42.2126018694544, -106.06199645627959 -42.60190594098613, -104.8264194776428 -43.246505659316114 M-107.55444249618901 -41.823297797922685 C-106.88577326948327 -42.17214210519199, -106.21710404277754 -42.5209864124613, -104.8264194776428 -43.246505659316114 M-104.8264194776428 -43.246505659316114 C-103.9024533942232 -43.655518035965926, -102.9784873108036 -44.06453041261574, -102.01281623420998 -44.49200435260903 M-104.8264194776428 -43.246505659316114 C-103.88588089890114 -43.6628541880394, -102.94534232015948 -44.07920271676268, -102.01281623420998 -44.49200435260903 M-102.01281623420998 -44.49200435260903 C-101.33802869988591 -44.740332402907875, -100.66324116556186 -44.98866045320673, -99.12519446513383 -45.554675856512084 M-102.01281623420998 -44.49200435260903 C-101.15453540740997 -44.80785963073243, -100.29625458060995 -45.123714908855824, -99.12519446513383 -45.554675856512084 M-99.12519446513383 -45.554675856512084 C-98.26568235827285 -45.809774538157306, -97.40617025141188 -46.06487321980253, -96.1754200276564 -46.4301534258734 M-99.12519446513383 -45.554675856512084 C-98.47015501672834 -45.74908812642661, -97.81511556832284 -45.94350039634113, -96.1754200276564 -46.4301534258734 M-96.1754200276564 -46.4301534258734 C-95.24121373796895 -46.64337991522879, -94.30700744828148 -46.85660640458419, -93.17561417766589 -47.11483953557113 M-96.1754200276564 -46.4301534258734 C-95.13015721845552 -46.668727841096214, -94.08489440925464 -46.907302256319035, -93.17561417766589 -47.11483953557113 M-93.17561417766589 -47.11483953557113 C-92.08104914204709 -47.29180032205135, -90.9864841064283 -47.468761108531574, -90.13810376085632 -47.60592066351581 M-93.17561417766589 -47.11483953557113 C-92.06192700107694 -47.29489184150899, -90.94823982448797 -47.47494414744685, -90.13810376085632 -47.60592066351581 M-90.13810376085632 -47.60592066351581 C-89.11270932227299 -47.704839231788704, -88.08731488368964 -47.803757800061604, -87.07537055907422 -47.901378852016144 M-90.13810376085632 -47.60592066351581 C-89.46566103678767 -47.670790404376014, -88.79321831271902 -47.735660145236224, -87.07537055907422 -47.901378852016144 M-87.07537055907422 -47.901378852016144 C-85.87760423992141 -47.93978888656066, -84.6798379207686 -47.97819892110519, -84.00000000000001 -48 M-87.07537055907422 -47.901378852016144 C-86.06711489851676 -47.93371164859963, -85.05885923795931 -47.96604444518312, -84.00000000000001 -48 M-84.00000000000001 -48 C-84.00000000000001 -48, -84 -48, -84 -48 M-84.00000000000001 -48 C-84.00000000000001 -48, -84 -48, -84 -48" stroke="#3fb950" stroke-width="2" fill="none" stroke-dasharray="0 0" style="fill:#0f1d33 !important;stroke:#3fb950 !important;stroke-width:2px !important;rx:14 !important;ry:14 !important"/></g><g class="label" style="color:#3fb950 !important" transform="translate(-100, -36)"><rect/><foreignObject width="200" height="72"><div style="color: rgb(63, 185, 80) !important; display: table; white-space: break-spaces; line-height: 1.5; max-width: 200px; text-align: center; width: 200px;" xmlns="http://www.w3.org/1999/xhtml"><span style="color:#3fb950 !important" class="nodeLabel"><p><b>DEPLOY / HOLD / FAIL</b><br /><small style="color:#8b949e">verdict from 5-axis + 8 SAT assertions</small></p></span></div></foreignObject></g></g></g></g><marker id="my-svg_flowchart-v2-pointEnd-margin__8b949e" class="marker flowchart-v2" viewBox="0 0 11.5 14" refX="11.5" refY="7" markerUnits="userSpaceOnUse" markerWidth="10.5" markerHeight="14" orient="auto"><path d="M 0 0 L 11.5 7 L 0 14 z" class="arrowMarkerPath" style="stroke-width: 0; stroke-dasharray: 1, 0;" stroke="#8b949e" fill="#8b949e"/></marker></g><defs><filter id="my-svg-drop-shadow" height="130%" width="130%"><feDropShadow dx="4" dy="4" stdDeviation="0" flood-opacity="0.06" flood-color="#FFFFFF"/></filter></defs><defs><filter id="my-svg-drop-shadow-small" height="150%" width="150%"><feDropShadow dx="2" dy="2" stdDeviation="0" flood-opacity="0.06" flood-color="#FFFFFF"/></filter></defs><linearGradient id="my-svg-gradient" gradientUnits="objectBoundingBox" x1="0%" y1="0%" x2="100%" y2="0%"><stop offset="0%" stop-color="#cccccc" stop-opacity="1"/><stop offset="100%" stop-color="hsl(180, 0%, 18.3529411765%)" stop-opacity="1"/></linearGradient><text text-anchor="middle" x="922.265625" y="-25" class="flowchartTitleText">Wixie per-prompt state flow</text></svg>